/* XPM */
static char *ca939cf3dc5f4f73be666b54dd6ed6cbeEM83420ShdAb65J[] = {
/* columns rows colors chars-per-pixel */
"177 95 14 1 ",
"  c None",
". c #1C1A1C",
"X c #2C2A2C",
"o c #343234",
"O c #7C5224",
"+ c #646264",
"@ c #9C5A2C",
"# c #B4723C",
"$ c #D4A65C",
"% c #ECC67C",
"& c #8C8E8C",
"* c #949694",
"= c #BCBEBC",
"- c #E4E6E4",
/* pixels */
"                                                                                                                                                                                 ",
"                                                                                                                                                                                 ",
"                                                                                                                                                                                 ",
"                                                                                                                                                                                 ",
"                                                                                                                                                                                 ",
"                                                                                                                                                                                 ",
"                                                                                                                                                                                 ",
"                                                                                                                                                                                 ",
"                                                        +oX                                                          +*+                                                         ",
"                                                      ***+oXX                                                      +*****+o                                                      ",
"                                                    ***+++++oX                                                    ****+++++o                                                     ",
"                                                    **+oXXo+++oX                                                +***++oXXo++o                                                    ",
"                                                   *++oXooXoo++oX                                              +**++ooXooXo+oX                                                   ",
"                                                   +ooX+..oXXoo++oX                                           +*++ooXXo..+XooX                                                   ",
"                                                  +ooX+.oX.o+XXXo+oX                                         +++oXXX+o.Xo.+XooX                                                  ",
"                                                 o..Xo.o+oX..o+.XXo+X                                       o+oXX.+o..Xooo.oX...                                                 ",
"                                                X$#@o.X+oo+oX..o+.XXoX                                     o+XX.+o..Xo+oX+X..@#$.                                                ",
"                                                $%$#OO.o.oXo+oX..o+.X+X                                   o+X.+o..Xo+oXo.o.O@#$%$                                                ",
"                                               $%%$#@OOXX.Xoo++oX..+.Xo.                                 o+X.+..Xo++ooX.XXOO@#$%%$                                               ",
"                                              $%%$$#@OO..Xo++oXXooX.+.XX.                               o+X.o.XooXXo++oX..OO@#$$%%$                                              ",
"                                             $%%%$#@O.XoXoXX.X++o..X.X.XX.                             o+X.+.X..o++..XXoXoX.O@#$%%%$                                             ",
"                                            #%%%$#@OXo++o+*++oX..oo...X.XX.                           o+X.+...+o..Xoo+++o++oX@@#$%%%#                                            ",
"                                            $%$$#@O@o+**+****++oXX.Xo..X.X..                         o+X.o..+o.XXo+++***++*+oOO@#$$%$                                            ",
"                                           $%$@#@O#$+**+***++*+++oX..Xo.X.X..                       o+o.o.oX..Xo+++**+***+*+o##O@#@$%$                                           ",
"                                           %%$@OO#$%+**+**++++++++oXX..X.X.X..                     X++XX.+X.Xo++++*++++*+o+oX%$#O@@$%%                                           ",
"                                          #%$#O@#%%%o*+o+*+o++++++++oX..X......                   Xo+oX.+X.Xo++++++++o+*+X+X.%%%#OO#$%#                                          ",
"                                          #$#@#%%%%$X++o+++oo+++++o+ooX..........               .Xo++oX.X.Xoo+o+++++oo++oXoX.$%%%%#@#$#                                          ",
"                                           #@#%$%%%$#o+Xo+oXo++o++oo+oX.............         ....Xo++X.o..Xo+oo++o++oXo+oXX.#$%%%$%#@#                                           ",
"                                           OO#%#$%%%$XoXX+oXX+oo+oXo+oX.........XooX..     ..XooX.XooX.+..Xo+oXo+oo+XXXoX...$%%%$#%#OO                                           ",
"                                           $O@%$@#$$$.X.XoXXXoooooXooXX........XXXo+XX.. ..Xo+++oX.Xoo.o..XXooXoooooX.XXX...$$$#@$%@O$                                           ",
"                                           %#O$%$@@##@..XXX.XoXXoXXXoX.........XooXXo+oX.Xo+++o+o...Xo.X...XoXXXoXXoX......@##@@$%$O#%                                           ",
"                                           #$O#%%$#OOOO..XX..XX.XXXXXX.......X....o+oXX+X.XoooX..XoX.X.X...XXXXXX.XX......OOOO#$%%#O$#                                           ",
"                                            @OO%%%$@OO@.........XX.XX........XXX.X...o+X+X.X...XXo+X...X....XX.XX.........@OO@$%%%O@@                                            ",
"                                             OO$%$#@O@@O....................XXoXXXXXX..+XoX...Xoo++oX...X................O@@O@#$%$OO                                             ",
"                                             @O#$#@OO@OOO...................Xo+oXooXXXX.oXooX...XXooX...X...............OOO@OO@#$#OO                                             ",
"                                             #O@#@OOOOO@O...................X+o+Xo+XoooX.oXoooXX...X.....X..............O@OOOOO@#@O@                                             ",
"                                             #$OOO@OOO@@OO..................Xoooo++o++oXX..+oXoXX......................OO@@OOO@OOO$#                                             ",
"                                              #$$$$$@@@OOO...................XXo++++++oooX...+XX..OO...................OOO@@@$$$$$#                                              ",
"                                               O#####@OO@O..X.................Xo+++++++o+oXX..o..@@@OO..............X..O@OO@####@@                                               ",
"                                                @@@@@OO@OX..XXXX....XXX......XXXo++++++++++oX....###@@@OO...X....XXoX.. O@OOOOO@#O                                               ",
"                                                @$$$$$#@O ..XoooXXXXooX.......Xo++++o+++++oXX...#$$$###@@@O...XXXoooX.  O@#$$$$$@                                                ",
"                                                 @@###@O  X..XoooXXooXX.......XXooo+o++++ooX...#$%%$$$$###@@O..XXXXX..   O@###@@                                                 ",
"                                                   @@OO    X...XX.XXX..........XXXoooo+ooXX...@@#$%%%%$$$$##@@O......     O@@                                                    ",
"                                                             ....................XXoXoooXX....@#@@#$%%%%$$$$$##@@O.                                                              ",
"                                                             OOOOOOOOO............XX.XXXX....@#$$##@#$%%%%%$$$$$##@@                                                             ",
"                                                           OO@@####@@OOOO..........X..X.....#$$$$$$$####$%%%%%$$$$$#@@                                                           ",
"                                                         O@@##$$$$$$#@@OOO.................#$%%%$$$$$$$###$%%%%%%$$$$#@@                                                         ",
"                                                        @@#$$$$$$$##@@@@@@OO..............@$%%%%%%%$$$$$$$###$%%%%%%$$$#@@                                                       ",
"                                                      @##$$$$$$$######$$$$$#@O............#%%%%%%%%%%%$$$$$$####$%%%%%$$$#@                                                      ",
"                                                     ##$$$$%$#####$$$$$$%%%%$#O..........#$%%%%%%%%%%%%%$$$$$$$###$%%%%$$$#@                                                     ",
"                                                    #$$$%%$####$$$$$$%%%%%%%$#@O........@#$$%%%%%%%%%%%%%%%$$$$$$###$%%%$$$#@                                                    ",
"                                                   #$$%%$###$$$$$$%%%%%%%%%%$$#@O......@@#$$$%%%%%%%%%%%%%%%%%$$$$$###$%%$$$#@                                                   ",
"                                                  #$%%%$##$$$$$$%%%%%%%%%%$$$$#@OO.....O@##$$$%%%%%%%%%%%%%%%%%%%$$$$###$%$$$#@                                                  ",
"                                                 #$%%%$#$$$$$$%%%%%%%%%%%$$$$$#@@OO...OO@@##$$$%%%%%%%%%%%%%%%%%%%%$$$$##$$$$##@                                                 ",
"                                                #$%%$##$$$$$%%%%%%%%%%%%$$$$$$#@@OOO@.OOO@@##$$$$%%%%%%%%%%%%%%%%%%%%$$$$##$$$#@@                                                ",
"                                               #$%%$##$$$$%%%%%%%%%%%%%$$$$$$###@OOOO@OOOO@@##$$$$%%%%%%%%%%%%%%%%%%%%$$$$##$$##@@                                               ",
"                                              #$%%$##$$$%%%%%%%%%%%%%%%$$$$$$###@@OOO@@OOOO@###$$$$%%%%%%%%%%%%%%%%%%%%$$$$##$##@@O                                              ",
"                                             #$%%$##$$$%%%%%%%%%%%%%%%$$$$$$####@@OOOO@OOOO@@###$$$$%%%%%%%%%%%%%%%%%%%%$$$$####@@@O                                             ",
"                                            #$%%$##$$$%%%%%%%%%%%%%%%$$$$$$$###@@@OOOOO@OOOO@@###$$$$$%%%%%%%%%%%%%%%%%%%$$$$#@##@@OO                                            ",
"                                            $%%$##$$$%%%%%%%%%%%%%%%$$$$$$$####@@OOOOOO OOOOO@@###$$$$$%%%%%%%%%%%%%%%%%%$$$$##@#@@@OO                                           ",
"                                           #$%%##$$$%%%%%%%%%%%%%%%$$$$$$$####@@@OOOOO   OOOOO@@###$$$$$$%%%%%%%%%%%%%%%%%$$$$#@@@@@OO                                           ",
"                                           $%%$#$$$%%%%%%%%%%%%%%%$$$$$$$####@@@OOOOO     OOOOO@@####$$$$$$%%%%%%%%%%%%%%%$$$$##@O@@@OO                                          ",
"                                          #$%%##$$%%%%%%%%%%%%%%$$$$$$$$####@@@OOOOO       OO@OO@@####$$$$$$$%%%%%%%%%%%%%$$$$##@@O@@OO                                          ",
"                                         #$$%$#$$$%%%%%%%%%%%%%$$$$$$$$####@@@OOOOOO       OO@@@O@@####$$$$$$$$$%%%%%%%%%%$$$$$##@OO@OOO                                         ",
"                                         #$$$##$$%%%%%%%%%%%%$$$$$$$$$###@@@@OOOOOO         O@@##@@@@####$$$$$$$$$$%%%%%%%$$$$$##@@OOOOO&&                                       ",
"                                        ##$$$#$$$%%%%%%%%%%$$$$$$$$$####@@@@OOOOOOO         OO@####@@@####$$$$$$$$$$$$$%%$$$$$$##@@OO&&&==&&                                     ",
"                                        ----==$$%%%%%%%%%$$$$$$$$$$###@@@@OOOOOOOO           O@@#$$##@@#####$$$$$$$$$$$$$$$$$$###@@&&===--==&&                                   ",
"                                     ---------==$%%%%%%$$$$$$$$$$###@@@@OOOOOOOOOO           OO@##$$$#@@######$$$$$$$$$$$$$$$$###&===-------==&                                  ",
"                                    -----------==$%%$$$$$$$$$$$###@@@@OOO@@@OOOOO             O@##$$$$#@@@######$$$$$$$$$$$$$###==--------=====&                                 ",
"                                  --------------==$$$$$$$$$$$###@@@@OO@##@@@OOOOO             OO@##$$$$#@@@@#######$$$$$$$$###@=-------===&&===&&                                ",
"                                 ----===----------==$$$$$$####@@@@OO@####@@@OOOO               O@@##$$$$#@@@@@###############==-------=&&&&=====&                                ",
"                                ---=&&&==------------=######@@@@O@#$$###@@@OOOOO                O@@###$$##@O@@@@@#########@==---------=&&&&=====&&                               ",
"                               ---=&&&===--------------=@@@@@@@#$$$$$###@@@OOOO                  O@@####$##@OO@@@@@@###@@==-----------=&&&&&&====&&                              ",
"                              =-=&&&======--------------==@@#$$$$$$$###@@@@OOOO                   O@@######@@OOO@@@@@@@@=--------------==&&&&&&&===&&                            ",
"                              -=&&====--------------------=$$$$$$$$####@@@OOOO                     O@@@#####@@OOOOO@@@==------------------==&&&&&&==&&                           ",
"                             ==&==-------------------------=$$$$$$####@@@@OOO                       O@@@@###@@OOOOOOO=-----------------------===&&&&=&&                          ",
"                             ==-----------------------------=$$$#####@@@@OOO                         OO@@@@@@@@OOOOO=---------------------------==&&&&&&                         ",
"                            =--------------------------------=######@@@@OOO                           OOO@@@@@@OOOO=---------------------========-==&&&&&                        ",
"                           =----===========------------------=####@@@@@OOO                             OOOOO@@@OOOO=-----------------================&&&&                        ",
"                          =--=================----------===---=#@@@@@@OOO                                OOOOOOOOO=----------------=========&&&=======&&&&                       ",
"                          =====&&&&=====&&&&====--------=&===--=@@@@OOOO                                   OOOOOO=---------------=======&&&&&&&&&&&====&&&                       ",
"                         =&&&&&&=====-----==&&&===-------&&==--=&@OOOOO                                       OO==----==-------=======------===&&&&&&&==&&                       ",
"                         &&&====------------==&&&===-----&&===-=&OOOO                                           =---==&=------=====-------------==&&&&&&&&                       ",
"                       &&===------------------==&&===----=&&==--=&O                                            ==--=&&==-----====-----------------====&&&&                       ",
"                      &==-----------------------=&&===----&&===-=&                                             =--=&&===----====-------------------=====&&&                      ",
"                    &&=--------------------------=&&===---=&===-=&                                             =--=&===----====----------------------=====&&&                    ",
"                   &==------===========-----------=&&===--=&&==-=&                                             =-=&&===----===------------=========-----====&&                   ",
"                  &==---======-------======-------==&&===--=&====&                                             =-=&&==----===---------======&&&&&&&====---===&&                  ",
"                 &=-======---------------=====-----==&===--=&===&&                                             ==&&===----===-------====-------====&&&&&&==-==&&                 ",
"                 &==&&=---------------------=&==---==&&===-=&&==&&                                             &=&&===---===------====-----------------=&&&&&==&                 ",
"                &&&&=-------======------==----=&==-===&===-=&&=&&                                               &&&===---==&-----===----=-----=======-----==&&&&&                ",
"                &&=----==============----===---=&==-==&&====&&=&                                                 &&===---===----==----==----=========&&&&==--=&&&                ",
"              &&=--=======&&&&&&&&&====---&===--=&====&&====&&&&                                                 &&&==--==&----==---==----===-----======&&&&====&&&              ",
"             &=---=-----------====&&&&===--&&===-=&====&&===&&&&                                                 &&&==--=&&----=--===---===-----------====&&&&&==&&&             ",
"           &&=-------------------====&&&==--&&====&&===&&==&&&                                                     &===-=&&---==-===---=-----------------====&&&&=&&&            "
};
