/* XPM */
static char *_46074a178e949d2d04f5d5cf1fd845cMU1czD83Pmwo3ZIf[] = {
/* columns rows colors chars-per-pixel */
"64 64 149 2 ",
"   c #241714",
".  c #261915",
"X  c #2A1B16",
"o  c #2C1B18",
"O  c #341E1C",
"+  c #3A1E1F",
"@  c #34211A",
"#  c #3B221E",
"$  c #371E22",
"%  c #3B1F21",
"&  c #3E2022",
"*  c #432423",
"=  c #4B2C26",
"-  c #4E2F29",
";  c #562A26",
":  c #5A2B27",
">  c #512F2A",
",  c #5C2C28",
"<  c #4D3029",
"1  c #51302B",
"2  c #5F302A",
"3  c #612F29",
"4  c #65312A",
"5  c #69332B",
"6  c #6D382D",
"7  c #7F4333",
"8  c #804334",
"9  c #834334",
"0  c #814434",
"q  c #814435",
"w  c #824434",
"e  c #844434",
"r  c #854434",
"t  c #844534",
"y  c #854534",
"u  c #854535",
"i  c #864534",
"p  c #864535",
"a  c #854634",
"s  c #854735",
"d  c #864634",
"f  c #874634",
"g  c #864734",
"h  c #874734",
"j  c #864635",
"k  c #874635",
"l  c #874735",
"z  c #854534",
"x  c #884533",
"c  c #884634",
"v  c #884734",
"b  c #894734",
"n  c #884635",
"m  c #884735",
"M  c #894735",
"N  c #884734",
"B  c #874835",
"V  c #884835",
"C  c #894835",
"Z  c #8A4934",
"A  c #8A4835",
"S  c #8B4835",
"D  c #8A4935",
"F  c #8B4935",
"G  c #8B4A35",
"H  c #8A4836",
"J  c #8A4936",
"K  c #8B4936",
"L  c #8C4935",
"P  c #8D4B35",
"I  c #8D4A36",
"U  c #8D4A37",
"Y  c #8D4B37",
"T  c #8E4A36",
"R  c #8F4B37",
"E  c #8F4C37",
"W  c #8A4835",
"Q  c #8E4B38",
"!  c #904A36",
"~  c #904B36",
"^  c #914C36",
"/  c #904D36",
"(  c #904C37",
")  c #914C37",
"_  c #904D37",
"`  c #914D37",
"'  c #924C36",
"]  c #924C37",
"[  c #904C37",
"{  c #914C38",
"}  c #924C38",
"|  c #924D38",
" . c #934E39",
".. c #934F3A",
"X. c #914C38",
"o. c #98513A",
"O. c #9F5D41",
"+. c #A45F41",
"@. c #A85F43",
"#. c #A56143",
"$. c #A96143",
"%. c #A86243",
"&. c #AC6442",
"*. c #AE6443",
"=. c #AF6443",
"-. c #AE6543",
";. c #AF6543",
":. c #AA6244",
">. c #AE6544",
",. c #AF6544",
"<. c #AE6545",
"1. c #AF6545",
"2. c #AE6644",
"3. c #AF6644",
"4. c #AF6744",
"5. c #AE6645",
"6. c #AF6645",
"7. c #AF6745",
"8. c #AF6646",
"9. c #AD6444",
"0. c #B06644",
"q. c #B06645",
"w. c #B26645",
"e. c #B16646",
"r. c #B16645",
"t. c #B16846",
"y. c #B36946",
"u. c #B46A46",
"i. c #B36846",
"p. c #B86947",
"a. c #B56B48",
"s. c #B56B49",
"d. c #B66D4A",
"f. c #B56A48",
"g. c #BB6F4A",
"h. c #BE714D",
"j. c #C1724F",
"k. c #C3744D",
"l. c #C3744F",
"z. c #C37450",
"x. c #C4825A",
"c. c #CA855C",
"v. c #CB875E",
"b. c #CA875D",
"n. c #CD885F",
"m. c #CE8A60",
"M. c #CE8861",
"N. c #D18A62",
"B. c #DC9263",
/* pixels */
"@ @ @ @ @ @ @ @ @ @ @ @ @ @ @ @ @ @ @ @ @ . . . o @ @ @ @ @ @ @ @ @ @ @ @ @ @ @ @ @ @ @ @ @ @ @ @ @ @ X @ @ @ @ @ @ @ @ @ @ @ @ ",
">.;.;.;.;.;.;.;.;.;.;.;.;.;.;.;.;.;.;.u.v.<   X , :.w.>.>.>.>.>.>.>.>.>.>.>.>.>.>.>.>.>.>.>.>.>.;.a.x.# O.w.>.>.>.>.>.>.>.>.>.>.",
"' ' ' ' ' ' ' ' ' ' ' ' ' ' ' ' ' ' E ..k.m.- X , ! ....' ' ....' ....' ....' ' ..' ' ..' ' ....! o.d.@ 4 L ' ' ' ..' ' ' ' ' ' ",
"v v v v v v v v v v v v v v v v v v v v L j.v.@ : v v v v v v v v v v v v v v v v v v v v v v v f L >.@ : f v v v v v v v v v v ",
"A A A A A A A A A A A A A A A A A A A A v ..a.@ : v A A A A A A A A A A A A A A A A A A A A A A v ' >.@ , v A A A A A A A A A A ",
"A A A A A A A A A A A A A A A A A A A A v E >.@ : v A A A A A A A A A f f f A A A A A A A A A A v ' >.@ : v A A A A A A A A A A ",
"A A A A A A A A A A A A A v A A A A A A v ' w.@ : f A A A A A A A f e 4 3 4 f A A A A A A A A A v ' >.@ : v A A A A A A A A A A ",
"A A A A A A A A A A A A f 4 f L A A A A v ' w.@ : A L A f f f f f 4 4 f f f A A A A A A A A A A v ..>.@ : v A A A A A A A A A A ",
"A A A A A A A A A A A A f 4 e v f A A A A ' w.@ ; e f e 4 3 4 3 4 7 f A A A A A A A A A A A A A v ..>.@ : v A A A A A A A A A A ",
"A A A A A A f A A A A A v f 3 , 3 f A A e ' >.@ % 3 3 4 f f f f e 5 f A A A A A A A A A A A A A v ' >.@ : v A A A v A A A A A A ",
"A A A A A f 5 f f A A f 3 , & $ & 3 v e 4 L y.@ & 0 f f A A A A A 8 4 f A A A A A A A A A A A A v ' >.@ : v A A v 4 f A A A A A ",
"A A A A A A e 4 4 f e , & $ X . $ , w 5 w L %.@ ; v A A A A A A A f 4 f A A A A A A A A A A A A v ..y.@ ; f v A e 4 f A A A A A ",
"A A A A A A A f 8 3 , & $ X . . X % , 0 f 3 * X , v A A A A A A A A v A A A A A A A A A A A A A f L %.@ $ , 3 w 5 f A A A A A A ",
"v v v v v v v f 3 & % $ $ X . X . X & , , & . X , x v v v v v v v v v v v v v v v v v v v f v f 4 , * X X $ & , 0 A v v v v v v ",
", , , , , , , : & $ $ $ $ $ X . . . X + + . . . + ; : : : : : : : : : , , , , : : : : : : : : ; $ + . . . . . + : : : : : : : : ",
"X X X X X o & * * * * & % & $ X X X X @ @ @ @ O @ @ @ @ @ @ @ @ @ @ @ X X X X @ @ @ @ @ @ @ @ @ @ @ @ @ @ @ @ @ @ @ @ @ @ @ @ @ ",
". . . . X . O +.i.>.Q f 4 : & $ % % 2 &.y.w.;.e 9.w.w.w.w.w.w.w.>.a.v.-     o +.w.>.w.w.w.w.w.w.w.w.w.w.w.w.w.w.w.w.>.>.w.w.w.w.",
"% % & & $ X X 4 L ..u.p.f , & & , 4 f ' ' ' A 5 L ..............! ..j.n.1 * o 4 L ....' ' ' ' ' ' E ' ' ' ' ' ' ' ' ' E ' ' ' ' ",
": : , : * + o : f A R R 4 , , 3 8 A A v v e 3 w v v v v f v v v v v Q h.B.n.@ ; f A v v v v v v v v v v v v v v v v v v v v v v ",
", , , , : $ o , v A v A 7 4 e f 5 f A A A e 4 f A A A A A v A A A A v L h.g.@ : v A A A A A A A A A A A A A A A A A A A A A A A ",
", , , , , $ X , v A A f 5 f L A f A A A f 4 f A A A A A A A A A A A A v ..>.@ : v A A f f A A A A A A A A A A A A A A A A A A A ",
", , , , : $ X , v A A A f A A A A A A A e 4 f A A A A A v A A A A A A v ' w.@ : v A x 4 4 e A A A A A f f A f A A A A A A A A A ",
", , , , : $ o , v A A A A A A A A A A f 4 7 4 f A A A A A A A A A A A v ' w.@ : v A A f e 4 f A A A e 4 4 w 5 f A A A A A A A A ",
", , , , : $ X , v A A A A A A A A A A e 4 e 4 f A A A A A A A A A A f v ' w.@ : v A A A L e 4 f L e 5 0 f 5 7 A A A A A A A A A ",
", , , , : % X , v A A A A A A A A A f 5 e A v A A A A A A A A A A f 5 w ' w.@ : v A A A A f 4 e v 4 e L A 0 5 0 A A A A A A A A ",
", , , , : % o , v A A A A A A A A A A f A A A A A A A A A A A A A A e 4 A 9.@ : v A A A A A e 5 w 4 f A A L e 5 f A A A A A A A ",
", , , , : $ o , v A A A A A A A A A A A A A A A A A A A A A A A A A L 0 5 f O , v A A A A A A e 4 0 A A A A A f A A A A A A A A ",
", , , , : $ o , v A A A A A A A A A A A A A A A A A A A A A A A A A A v L &.@ : v A A A A A A e 4 f A A A A A A A A A A A A A A ",
", , , , : % X , f A A A A A A A A A A A A A A A A A A A A A A A A A A v ' w.@ : f A A A A A f 4 e A A A A A A A A A A A A A A A ",
", , , , : $ X & , e v A A A A A A A A A A A A A A A A f f A A A A A A v ' w.@ ; 3 e A A A A e 4 v L A A A A A A A A A A A A A A ",
", , , , , * X X & , 4 f A f v v v v v v v v f f v v w * * 0 A v A A A f E 9.@ + * 3 e A A f 4 w v v v v v v v v v v v v v v v v ",
": : : : , : + . . + $ ; : : : : : : : : : : , , : : & . . # : : : : : : : , X . . + : : : : % ; , , , , : : , : : : : : : : : : ",
"4 4 4 4 4 4 4 * @ @ @ @ @ O @ @ @ @ @ @ @ @ X X @ @ @ @ @ @ @ @ @ @ @ @ @ @ @ @ @ @ @ @ @ @ @ @ X X X X @ @ @ @ @ @ @ @ @ @ @ @ ",
"a.a.u.u.u.u.u.w.w.>.w.w.%.B &.w.w.w.w.>.a.v.= O #.y.w.w.w.w.w.w.w.w.w.w.w.w.w.w.w.w.w.>.w.>.u.n.-     o #.w.>.>.w.w.w.w.w.w.w.w.",
"....E E E E E Q ......A 6 e ' ' ' ' ' ' ..z.v.# 4 E ' E ' ' ' ' ..' ' ..' ' ' ' ' E E E ' E ..k.m.- . o 4 L ' ..................",
"v v v v v v v v v f w 4 e A v v v v v v f ..a.@ : v v v v v v v v v v v v v v v v f v v v v x L l.N.& . , f A v v v v v v v v v ",
"A A A A A A A A e 4 4 f A A A A A A A A v ' 0.@ : v A A A A A A A A A A A A A A A A A A A A A A g.B.> X , v A A A A A A A A v v ",
"A A A A A A f e 5 0 f A A A A A A A A A v ..w.@ : f A A A A A f A A A A A A A A A A A A A A A A ..h.v.@ : v A A A A A f v e 3 , ",
"A A A A A e 4 4 e A A A A A A A A A A A v ..w.@ : v A A A A f 4 f A A A A A A A A A A A A A A A v ..a.@ : v A A A f e 3 , , & % ",
"A A A A e 5 e e 4 f A A A A A A A A A A v ..w.@ : v A A A A 0 4 f A A A A A A A A A A A A A A A v ' >.@ , v A A f 4 , * % % $ $ ",
"A A v e 5 0 L f 4 w A A A A A A A A A A v ..w.@ : v A A A f 4 f A A A A A A e A A A A A A A A A v ' w.@ , v A A A e 3 , , & % % ",
"L f 4 4 f R A A f 5 f A A A A A A A A A v ..w.@ : v A A A e 4 f A A A A A f 5 e A A A A A A A A v ' w.@ : v A A A A v v f 3 , , ",
"0 5 w e A A A A A f A A A A A A A A A A v ..w.@ : v A A f 5 f A A A A A A A e 5 0 f A A A A A A v ' >.@ : v A A A A A A A v v v ",
"4 0 A A A A A A A A A A A A A A A A A A v E %.@ : v A A A f A A A A A A A A A f 4 4 0 A A A A A v ' y.@ : v A A A A A A A A A A ",
"f A A A A A A A A A A A A A A A A A A A f 3 * X , f A A A L A A A A A A A A A A f e 5 f A A A A A ' #.@ , v A A A A A A A A A A ",
"v v v v v v v v v v v v v v v v v v v f 4 & . X & 3 f v v v v v x v v x v v x v v A e v v x v v A e * o , f A v v v v v v v v v ",
", , , , , , , , , : : : : , : : : : : : ; + . . . + : , , , , , , , , : : , , , , , , : : : : : , : + . $ : : : : : : : : : : : ",
"o X X X X X X X o @ @ @ @ o @ @ @ @ @ @ @ @ @ @ @ @ @ @ @ @ @ @ @ @ @ @ @ X X X X @ @ @ @ @ @ @ @ @ @ @ @ @ @ @ @ @ @ @ @ @ @ @ ",
". . . . X . . . # +.w.w.%.5 @.y.w.>.w.w.w.w.w.w.w.w.w.w.w.w.>.>.w.w.>.a.v.< . . * :.w.w.w.w.w.w.w.w.w.w.w.w.w.w.w.w.w.w.w.w.>.>.",
"* * * & $ X . X # 5 L ' E f 5 L ............................Q Q ....Q ..j.v.@ + e ......' ....' ..' ' ' ' ' ' ....' ' ........' ",
"i.u.w.A , & X & 3 e A v A f 4 e A v v v f f v v v v v v v f f f v v v f ..u.@ : v A v v v v v v v v v v v v v v v v v v A A f f ",
"' E ..i.A & X , f L A A A A f 4 f A A A A v v A A A A A A A A A A A A v Q ;.@ , v A A A A A A A A A A A A A A A A A A A f f A A ",
"A v v ' w.* X , v A A A A A 0 4 f A A A v A A A A A A A f A A A A A A v ' w.@ : v A A A A A A A A A A A A A A A A A A v 4 4 e A ",
"A A v L w.= X , v A A A A f 5 8 A A A A v A A A A A A e 5 v A A A A A v ' w.@ : v A A A A A A A A A A A A A A A A A A A f e 4 e ",
"A A A v ..:.@ , v A A A A A w 5 f A A A A A A A A A f 4 e A A A A A A v ' w.@ : v A A A v A A A A A A A A A A A A A A A A A e 4 ",
"A A A v ' w.@ : v A A f A e 5 e f A A A A A A A A A 0 4 f A A A A A A v ' w.@ : B A A f 4 f A A A A A A A A A A A A A A A A A f ",
"A A A v ' w.@ , v A f 5 w 3 , 0 5 f A A A A A A A e 5 f A A A A A A A v ' w.@ : v A A 0 4 0 L A A A A A A A A A A A A A A A A A ",
"A A A v ' w.@ , v A A e 4 * & , w A A A A A A A A A e A A A A A A A A v ' w.@ , v A e 4 w 5 e A A A A A A A A A A A A A A A A A ",
"A A A v ' w.@ : v A A A 8 , & % 3 A A A A A A A A A A A A A A A A A A v ' w.@ : f B w 4 f e 5 f A A A A A A A A A A A A A A A A ",
"A A A v ' w.@ : v A A f 5 w , & , e A A A A A A A A A A A A A A A A A v ' w.@ $ , 3 4 f A A f A A A A A A A A A A A A A A A A A ",
"A A A v ' y.@ , v A A A f L 0 4 w 5 f L A A A A A A A A A A A A A A A v ' y.@ . % , f A A A A A A A A A A A A A A A A A A A A A ",
"v v v f ! 9.@ : f v v v A e 5 e A e v v v v v v v v v A v v A v v A v x L 9.@ . $ , f v v v v v v v v v v v v v v v v v v v v v ",
", , , , , , o + , , , , : * ; , , , , , , , , , , , , , , , , , , , , , , , o . X # : , , , , , , , , , , , , , , , , , , , , , ",
"o X X X X X . X X X X X X X o X X X X X X X X X X X X X X X X X X X X X X X . . . X X X X X X X X X X X X X X X X X X X X X X X "
};
