/* XPM */
static char *_9fa6125d4be4df8f20f9b8da2085af83qf5lxMgWOtTfpFk[] = {
/* columns rows colors chars-per-pixel */
"64 64 159 2 ",
"   c #171B27",
".  c #181C28",
"X  c #191D29",
"o  c #1A1E2A",
"O  c #1C202C",
"+  c #1D212D",
"@  c #1E222E",
"#  c #1F232F",
"$  c #24292F",
"%  c #202430",
"&  c #212531",
"*  c #222632",
"=  c #232733",
"-  c #272C32",
";  c #242834",
":  c #252935",
">  c #262A36",
",  c #272B36",
"<  c #272B37",
"1  c #282D33",
"2  c #292E34",
"3  c #2A2F35",
"4  c #282C37",
"5  c #282C38",
"6  c #292D38",
"7  c #292D39",
"8  c #2B2F38",
"9  c #2A2E39",
"0  c #2A2E3A",
"q  c #2B2F3A",
"w  c #2B2F3B",
"e  c #2B3036",
"r  c #2C3137",
"t  c #2D3238",
"y  c #2E3339",
"u  c #2E323B",
"i  c #2F343A",
"p  c #2C303C",
"a  c #2D313C",
"s  c #2D313D",
"d  c #2F333C",
"f  c #2E323E",
"g  c #2F333E",
"h  c #30353B",
"j  c #31363C",
"k  c #32373D",
"l  c #30343F",
"z  c #33383E",
"x  c #34393F",
"c  c #313541",
"v  c #333743",
"b  c #373C42",
"n  c #343844",
"m  c #353945",
"M  c #373B47",
"N  c #3A3F45",
"B  c #383C48",
"V  c #393D49",
"C  c #3A3E4A",
"Z  c #3B3F4B",
"A  c #3C404C",
"S  c #3D414D",
"D  c #3E424E",
"F  c #3F434F",
"G  c #42474D",
"H  c #43484E",
"J  c #404450",
"K  c #414551",
"L  c #424652",
"P  c #434753",
"I  c #464B51",
"U  c #474C52",
"Y  c #444854",
"T  c #454955",
"R  c #464A56",
"E  c #474B57",
"W  c #484D53",
"Q  c #494E54",
"!  c #4A4F55",
"~  c #484C58",
"^  c #494D59",
"/  c #4A4E5A",
"(  c #4B4F5A",
")  c #4B4F5B",
"_  c #4B5056",
"`  c #4C5157",
"'  c #4D5258",
"]  c #4E5359",
"[  c #4C505B",
"{  c #4F545A",
"}  c #4C505C",
"|  c #4D515C",
" . c #4D515D",
".. c #4E525D",
"X. c #4E525E",
"o. c #4F535E",
"O. c #4F535F",
"+. c #50555B",
"@. c #50545D",
"#. c #51565C",
"$. c #52575D",
"%. c #51555E",
"&. c #50545F",
"*. c #52565F",
"=. c #53585E",
"-. c #54595F",
";. c #505460",
":. c #515560",
">. c #515561",
",. c #535760",
"<. c #525661",
"1. c #525662",
"2. c #535762",
"3. c #535763",
"4. c #545861",
"5. c #555A60",
"6. c #565B61",
"7. c #555962",
"8. c #545863",
"9. c #565A63",
"0. c #575C62",
"q. c #545864",
"w. c #555964",
"e. c #555965",
"r. c #575B64",
"t. c #565A65",
"y. c #565A66",
"u. c #575B66",
"i. c #575B67",
"p. c #585D63",
"a. c #585C65",
"s. c #595E64",
"d. c #5A5F65",
"f. c #595D66",
"g. c #585C67",
"h. c #5A5E67",
"j. c #585C68",
"k. c #595D68",
"l. c #5B5F68",
"z. c #5A5E69",
"x. c #5B5F6A",
"c. c #5B6066",
"v. c #5C6167",
"b. c #5C6069",
"n. c #5D6268",
"m. c #5E6369",
"M. c #5D616A",
"N. c #5C606B",
"B. c #5F646A",
"V. c #5C606C",
"C. c #5D616C",
"Z. c #5E626D",
"A. c #5F636E",
"S. c #60656B",
"D. c #60646D",
"F. c #61666C",
"G. c #62676D",
"H. c #61656E",
"J. c #60646F",
/* pixels */
"+.{ +.=.=.Q b 1 r e e t j j j i 3 j H =.s.5.=.5.v.5.5.{ { W ' e t +.{ _ $.{ +.` _ Q ' +.Q N e $ 3 3 3 e t t t t - x G Q Q I U Q ",
"n.c.c.n.B.v.=._ $.$.$.5.s.c.c.s.s.s.n.F.B.s.s.n.S.c.n.s.c.-.p.x h -.5.=.c.c.n.c.v.p.0.s.0.$.' ' ` _ ` ' { { ' _ +.5.v.v.0.=.$.=.",
"=.$.+.$.$.-.-.=.s.s.s.v.B.F.F.F.n.s.0.5.$.{ +.-.$.' -.$.5.{ $.e e ' { _ $.+.$.+.$.{ ' { +.+.=.0.5.5.5.p.p.0.5.$.=.-.=.$.{ ' ' ' ",
"$.$.$.+.{ +.$.=.' ' ` ' ' ' { { +.+.$.=.=.$.$.$.$.{ 5.$.0.=.5.r t $.$.' $.+.$.+.{ { $.$.$.$.$.=.` ` ' ' { ' _ Q $.{ ' ` ' { +.+.",
"=.5.p.0.5.$.$.$.$.$.$.+.+.+.$.$.=.5.5.0.0.5.=.+.5.-.5.$.0.5.s.i e +.=.+.5.5.s.s.=.5.0.5.-.$.$.+.' ' { +.$.$.{ ' 5.-.$.+.$.$.+.' ",
"_ ' $.-.=.+.' ` $.$.=.$.$.=.5.p.-.-.$.{ +.$.$.{ -.$.$.Q $.$.5.e 3 { $.' $.{ $.$.{ $.$.' Q _ ' ' $.+.+.$.=.=.$.$.' ' ' ' ' ' ` _ ",
"$.$.-.5.0.5.-.$.` ' ' ` _ ` { $.5.0.5.$.-.p.p.5.5.-.5.' 5.p.v.i z p.s.=.-.+.$.$.$.5.5.+.' +.=.-.+.{ ' ` ' ' ' ' ' ' { +.$.$.$.=.",
"0.-.$.$.-.5.5.-.=.=.=.+.' ' { $.=.5.5.-.5.p.=.` { ' $._ =.5.s.e e $.-.' $.' $.=.' 5.p.5.$.$.=.$.5.-.+.{ { +.+.{ { { +.' ` _ ` ' ",
"-.-.-.5.5.5.5.0.=.$.$.$.+.` ' $.5.5.5.5.5.5.5.5.-.$.5.$.0.-.p.i 3 p.` $.' $.5.$.$.=.=.=.$.$.+.+.+.+.+.+.+.{ { { _ $.-.$.' ' { +.",
"=.=.=.-.-.5.5.5.=.$.$.$.+.' ' $.-.-.-.-.5.5.5.5.-.$.-.+.5.=.0.i 3 s.' =.+.=.5.$.$.$.$.=.=.$.$.$.$.$.+.+.+.+.+.+.' $.$.{ ' { +.{ ",
"$.$.$.=.=.-.-.5.=.$.$.=.$.{ +.-.5.5.5.5.5.5.5.5.5.$.-.' -.$.p.h 3 s.{ 5.$.5.0.$.+.$.$.=.-.-.-.-.+.$.$.$.$.$.$.$.$.$.$.' { $.=.+.",
"$.$.=.=.-.-.5.5.=.$.$.-.=.+.$.5.p.p.p.p.p.0.0.0.0.$.-.' -.=.s.j 3 s.+.5.=.5.0.$.$.=.=.-.5.5.-.-.+.+.+.+.$.$.$.$.5.-.+.' $.0.5.$.",
"=.-.-.5.5.5.5.5.5.=.=.5.-.$.=.0.s.p.p.p.0.0.0.0.5.$.=.' =.$.0.h 3 s.{ 5.=.5.0.$.5.5.5.5.5.5.-.=.+.+.+.+.+.+.+.+.5.=.{ ' $.0.5.$.",
"-.-.-.5.5.5.5.0.0.5.5.0.5.=.-.p.0.5.5.5.5.-.-.-.=.{ $.` $.+.5.t 3 s.{ 5.$.5.0.$.0.0.0.0.5.5.-.=.$.$.$.$.$.+.+.+.=.$.' ' $.5.5.+.",
"=.=.-.-.5.5.5.5.s.0.0.p.5.=.-.p.5.5.5.5.-.=.=.=.-.$.-.{ -.$.0.t r c.+.5.$.5.s.-.5.5.0.0.0.0.5.5.5.5.-.=.$.$.$.$.$.=.$.+.=.0.5.$.",
"$.$.=.=.-.-.5.5.s.p.p.s.0.=.-.p.p.0.0.5.5.5.-.-.5.-.0.=.s.5.s.j t n.$.5.=.0.c.5.5.5.5.0.p.p.p.p.p.0.0.5.-.=.$.$.=.5.5.5.5.s.s.5.",
"$.$.$.=.-.5.0.p.s.s.s.s.s.s.0.5.0.p.p.0.5.5.=.$.0.0.s.$.0.0.c.i e S.=.5.=.-.p.c.s.0.5.0.s.v.s.p.0.0.0.5.5.5.5.5.0.p.s.s.0.5.-.-.",
"-.-.-.5.5.0.p.s.s.s.p.s.s.s.0.5.5.0.p.s.p.5.=.+.5.5.p.$.0.p.v.j 3 S.-.5.5.5.p.s.s.s.p.p.s.s.s.0.s.s.p.0.5.5.-.-.5.5.p.0.5.=.$.$.",
"5.5.5.5.5.0.p.p.s.p.0.p.s.p.0.5.-.5.s.s.s.5.$.+.-.-.0.$.0.p.n.j 3 S.-.p.0.0.p.s.s.c.c.c.s.p.0.p.v.c.s.s.0.5.-.=.5.5.p.0.5.=.$.$.",
"-.-.-.-.-.5.5.5.s.p.0.p.s.s.p.5.5.5.p.s.p.5.=.$.-.-.0.$.0.0.v.j 3 B.-.s.s.s.s.p.p.c.n.v.s.p.p.s.v.v.c.s.0.5.5.-.5.p.s.p.5.-.=.=.",
"5.5.-.-.5.5.5.0.c.s.p.p.s.s.p.0.0.0.5.5.5.5.5.5.5.5.p.$.5.5.s.i 3 B.-.s.c.c.s.p.5.s.n.n.c.s.s.v.c.c.s.s.p.0.5.5.5.5.p.p.5.-.-.-.",
"5.5.5.5.0.p.s.s.v.s.p.0.0.0.5.5.p.0.5.-.-.5.5.0.5.5.p.$.5.5.s.t 3 B.-.s.v.n.c.s.0.s.v.n.n.v.v.v.s.s.s.p.0.5.5.5.$.=.5.5.-.=.=.=.",
"5.5.5.5.0.s.s.c.c.s.5.5.-.-.=.$.5.5.5.5.5.5.5.5.5.-.0.+.5.5.s.i r S.=.s.v.n.v.s.s.s.v.n.B.n.c.s.c.s.s.p.5.-.=.=.{ $.-.5.-.-.-.5.",
"=.=.-.-.5.0.s.s.s.p.5.=.$.$.$.+.-.5.0.0.0.5.5.-.=.=.5.+.5.0.c.h r S.=.s.v.n.n.c.n.v.v.n.S.B.s.5.v.c.s.0.5.=.$.+.+.$.5.5.5.5.0.0.",
"p.5.$.$.5.s.0.+.5.5.=.$.{ { $.-.5.0.0.0.0.0.5.5.5.$.=.' 5.p.s.r e n.s.s.s.B.p.n.B.n.c.c.n.n.s.0.s.s.s.p.5.5.5.5.5.5.5.5.0.p.s.s.",
"5.5.=.$.5.s.0.$.5.5.-.$.{ { $.$.5.5.5.5.5.5.5.-.5.=.-.' 0.p.c.t 3 n.s.s.s.n.p.n.n.n.v.v.v.v.s.s.s.s.s.p.5.=.=.-.0.0.0.p.p.p.p.p.",
"-.5.5.$.=.0.p.5.5.5.5.-.$.+.+.$.-.-.5.5.5.5.-.-.5.-.5.{ 0.s.v.i 3 v.p.s.s.n.0.v.n.n.n.v.s.s.c.v.s.s.s.p.-.$.$.$.5.5.0.0.0.5.5.-.",
"$.5.0.=.$.5.s.s.0.p.s.0.5.$.$.$.$.=.-.5.5.5.5.5.5.-.0.$.p.s.n.j 3 c.p.p.p.n.5.c.v.n.n.v.s.s.c.n.v.v.c.s.5.=.$.$.$.=.5.5.5.5.=.$.",
"$.0.p.5.=.5.s.s.s.s.c.s.0.-.=.=.$.$.=.5.0.p.p.s.5.-.0.$.p.s.n.j 3 c.p.p.p.n.5.c.c.n.n.n.s.s.c.n.n.n.n.c.0.5.-.-.$.-.5.0.0.0.5.-.",
"$.0.s.5.-.5.p.p.s.s.c.s.p.5.-.-.$.$.-.5.0.p.p.p.-.-.p.$.0.s.n.z 3 v.p.s.s.n.0.v.s.v.n.n.v.c.c.v.n.n.n.c.s.0.0.0.0.0.p.s.s.s.p.0.",
"=.0.s.0.0.p.0.-.p.s.s.s.0.5.5.5.-.-.5.5.5.5.-.-.=.=.0.$.0.p.n.z 3 n.s.s.s.n.p.n.s.s.v.n.B.n.c.s.s.c.v.c.s.p.p.s.c.s.s.s.p.5.5.5.",
"=.0.s.p.p.s.5.$.5.0.p.0.5.-.-.5.5.5.5.-.=.$.+.+.$.=.0.$.5.0.n.z e n.s.s.s.B.s.n.s.s.k.n.F.S.k.0.p.s.s.s.p.p.s.s.v.c.s.5.-.$.$.$.",
"5.5.5.p.p.s.s.s.$.-.5.5.-.=.5.p.=.-.5.5.=.$.$.$.=.$.s.5.s.5.s.j 5 F.r.s.k.s.k.s.k.n.Z.k.k.s.s.s.s.s.s.k.k.k.s.5.s.s.s.r.5.,.,.$.",
"5.5.5.0.p.s.s.s.=.5.5.5.5.5.5.0.-.5.5.5.-.$.$.=.-.-.s.5.s.5.s.h 5 F.r.k.k.k.k.k.k.k.k.k.k.k.r.r.r.5.r.s.k.k.s.s.r.s.s.r.5.,.$.,.",
"-.5.5.0.p.p.p.p.5.5.5.5.0.0.0.5.5.5.5.5.-.-.5.5.0.5.c.0.s.5.s.h 3 Z.r.k.k.k.k.Z.k.k.k.k.k.s.r.r.5.5.5.s.k.k.s.s.r.s.s.s.r.4.5.5.",
"-.5.5.0.p.p.p.p.p.5.-.5.0.s.0.5.0.5.0.5.5.5.0.s.s.p.n.0.s.5.p.s ; Z.5.k.k.k.Z.Z.Z.Z.Z.Z.k.k.k.s.5.5.r.s.k.n.s.s.r.s.s.s.r.r.5.r.",
"5.5.5.r.r.s.s.s.a.r.5.5.r.s.5.5.r.r.r.5.5.5.s.k.k.s.n.r.s.5.s.s ; Z.r.k.k.k.n.Z.Z.Z.Z.Z.Z.k.k.k.s.s.s.k.k.k.s.r.5.r.s.s.s.a.s.s.",
",.5.5.5.r.r.r.r.r.5.5.5.5.5.5.,.5.r.r.r.5.r.s.k.k.s.n.5.s.5.r.s ; Z.r.k.k.k.n.Z.k.x.Z.Z.Z.Z.Z.k.k.k.k.k.s.s.5.5.5.5.r.a.a.a.s.s.",
",.5.5.5.r.r.r.r.4.5.5.5.,.$.,.5.,.5.r.r.r.s.s.s.k.s.k.5.r.,.r.s 5 Z.r.k.k.k.n.Z.k.k.k.k.k.k.k.k.k.k.s.k.s.r.r.,.,.,.q.r.r.r.r.s.",
",.5.5.5.r.r.r.r.,.5.r.5.$.$.$.5.$.5.r.s.s.s.s.s.s.s.s.5.r.,.r.s 5 Z.r.k.k.k.k.n.r.r.r.s.k.k.k.k.r.r.r.r.r.r.,.,.o.o.,.,.,.,.r.r.",
",.,.,.,.,.r.r.r.,.q.r.5.,.,.,.,.$.,.r.r.r.r.r.r.k.5.r.5.r.o.,.l 5 x.r.k.5.r.k.r.5.,.q.r.k.k.k.r.r.r.r.r.r.r.o.) o.o.,.,.,.,.,.,.",
",.,.,.,.,.,.r.r.,.,.r.5.,.,.,.,.o.,.r.r.k.k.k.r.k.5.r.,.r.o.5.s 5 k.3.k.r.r.k.r.5.5.q.r.k.k.k.r.r.r.r.r.r.,.,.o.o.o.,.,.,.,.3.r.",
"o.,.,.,.,.,.,.,.,.,.,.5.3.r.q.3.,.,.r.r.r.a.r.k.k.r.r.,.r.,.,.s ; k.,.k.5.r.k.r.5.5.r.r.k.k.s.r.r.3.3.3.r.3.,.,.O.,.,.,.,.3.r.r.",
"o.,.,.,.,.,.,.$.&.&.,.,.r.r.r.r.s.r.r.r.r.r.r.r.k.r.5.o.r.,.r.5 ; k.,.s.5.r.k.r.5.r.r.r.k.k.r.r.,.,.,.,.,.r.3.3.r.r.3.3.,.,.,.3.",
"o.o.,.,.,.,.o.o.o.o.o.,.r.r.r.r.k.k.r.r.5.5.r.r.k.r.r.o.r.,.r.5 ; s.$.r.r.r.k.r.,.r.r.r.r.r.r.r.3.,.,.,.3.r.r.r.r.r.r.,.,.O.,.,.",
"o.o.o.o.$.$.o.o.$.o.o.$.4.r.5.,.q.q.,.,.5.r.r.r.j.r.r.o.,.,.r.5 3 k.,.r.5.r.k.5.,.,.r.r.r.,.,.,.3.,.,.,.,.r.3.3.,.,.,.,.,.,.3.r.",
"o.o.o.o.o.o.o.o.$.o.o.o.,.,.,.o.,.,.,.,.3.r.r.r.r.r.k.o.,.,.r.5 5 k.o.r.r.r.k.,.,.,.r.r.,.,.,.,.3.,.,.,.3.,.,.,.o.O.,.,.,.,.,.r.",
"o.o.o.o.o.o.o.o.,.o.o.o.,.,.o.) ,.,.,.,.,.,.,.,.5.r.k.o.$.o.r.5 5 k.o.r.r.r.j.,.o.,.r.r.,.o.o.$.3.,.,.,.3.,.O.O.O.,.,.,.,.O.o.O.",
"o.o.o.o.o.o.o.) o.) o.O.O.o.o.,.,.O.O.,.,.,.,.,.,.o.,.o.,.O.r.s ; O.o.,.o.,.o.,.3.,.O.O.,.,.o.) ,.) o.o.,.j.r.) Y r.x.r.,.,.r.k.",
") ) ) ) o.o.) ) o.) ) o.o.) ) o.o.o.,.,.,.,.,.,.,.o.O.) O.o.r.s = o.o.,.o.r.;.,.,.,.o.o.,.,.o.o.o.) o.,.,.j.r.) Y ,.j.,.o.o.,.,.",
") ) ) ) ) ) ) ) ) ) ) o.o.) ) o.o.o.o.O.,.,.,.,.,.o.O.) O.o.,.5 % o.) ,.o.,.,.,.o.o.o.o.o.o.o.o.) ) ,.r.,.r.r.o.) ,.3.o.) o.o.) ",
"o.o.) o.o.o.o.) ) Y ) ) ) ) ) o.o.o.o.O.O.O.,.,.,.o.,.o.,.O.r.s % o.) ,.o.,.o.,.o.o.o.o.o.o.o.o.,.,.r.r.,.,.r.o.o.r.3.o.o.,.O.) ",
"o.) o.o.o.o.o.) ) Y Y ) ) ) o.,.,.,.,.,.,.,.,.O.,.o.,.) ,.o.,.5 ; o.) o.) o.) o.o.o.o.o.o.) o.o.,.,.3.,.) o.r.,.o.3.,.o.o.,.,.o.",
") ) ) ) o.o.) ) ) ) ) ) ) ) o.,.o.o.o.o.O.O.O.O.o.) o.) o.o.,.; ; o.) o.) ) ) ) o.o.o.o.) ) o.o.o.o.o.) Y o.3.,.) ,.,.o.o.,.,.o.",
") ) ) ) o.o.) ) o.) E ) ) ) o.o.o.o.o.o.o.) ) ) ) E o.) o.) o.; ; o.) o.Y ) E ) ) o.o.o.o.o.,.,.,.o.o.) Y o.,.o.) O.,.) ) o.o.) ",
") ) ) o.o.o.o.o.o.) ) ) ) E ) o.) ) ) ) ) ) ) ) ) ) o.) O.o.o.; ; o.) ) Y ) ) o.) ) o.o.o.o.,.r.r.,.,.o.) O.,.) ) ,.,.) Y ) o.) ",
") o.o.o.o.o.) ) ) ) ) ) ) ) ) ) ) ) ) E Y ) ) o.Y o.o.) ,.o.o.; ; ) o.) o.) ) ) o.) ) ) ) o.,.,.O.,.,.o.o.o.o.o.o.o.o.o.) ) ) ) ",
"o.) ) ) ) ) o.,.) ) ) ) ) ) ) ) Y ) o.o.) ) Y Y Y ) o.Y ) Y ) ; % ) o.Y ) ) o.o.Y Y ) ) o.o.) Y Y E ) Y ) ) ) ) ) o.,.,.o.) Y Y ",
"o.o.o.o.o.) Y Y Y Y Y E ) ) o.o.Y ) ) o.o.) ) ) Y ) o.Y ) Y ) s % ) ) Y ) Y o.o.) ) ) ) ) Y K A K Y Y Y ) ) o.) Y E o.o.o.) ) ) ",
") ) ) ) ) Y Y K K K K K Y Y ) Y ) ) ) E Y Y Y ) Y Y ) Y o.Y ) 5 % Y ) Y Y K Y ) ) Y Y Y Y K K K B A K K Y Y Y Y Y Y Y Y Y Y Y ) ",
") Y K K Y ) ) o.) ) ) ) ) ) ) ) o.o.) ) Y K K Y Y Y Y K o.Y K % % K Y K ) K Y Y K K K K Y Y Y K A K Y Y Y ) ) Y Y Y Y Y K K K K ",
"Y Y ) ) o.) K A A A A A A A A A B A Y ) ) ) ) ) o.) ) Y o.K K % ; K K K ) Y ) ) Y Y ) ) Y K B M M B A B Z A A B Z F Y ) ) Y K K ",
"M B A K K B s % % % % ; ; ; ; ; 5 s M B A A A A A A A B A M B ; % B v v A B B B A A A B B v 5 ; % % ; % % ; ; % 5 s M B B B B B ",
"= @ .   @ % % % 5 5 5 5 5 5 5 5 % = ; % % % % % . @ % @ @   5 . . 5 @ . ; % % % % @ @ @ @ @ @ @ ; ; ; % ; 5 5 ; @ @ @ @ @ @ @ @ "
};
