/* XPM */
static char *_5f14e4d11624154a23758a2fdb09cdbTKr0ATqnpRHiPDoH[] = {
/* columns rows colors chars-per-pixel */
"64 64 201 2 ",
"   c #00010E",
".  c #0A060E",
"X  c #0D080F",
"o  c #030514",
"O  c #090713",
"+  c #060915",
"@  c #0B0A15",
"#  c #01061B",
"$  c #050B1C",
"%  c #0C0D1A",
"&  c #100F1D",
"*  c #0E111E",
"=  c #0F181F",
"-  c #12121E",
";  c #19161E",
":  c #1D181F",
">  c #040A24",
",  c #0A0E21",
"<  c #0D1323",
"1  c #0E152B",
"2  c #0C1A2D",
"3  c #141523",
"4  c #181625",
"5  c #151925",
"6  c #1A1A25",
"7  c #131629",
"8  c #151A2C",
"9  c #1C1C2B",
"0  c #0E1A33",
"q  c #0C1B3B",
"w  c #0A1734",
"e  c #151D33",
"r  c #1B1E32",
"t  c #131E3A",
"y  c #211E2C",
"u  c #211C23",
"i  c #211F31",
"p  c #1C232D",
"a  c #162135",
"s  c #1D2233",
"d  c #13223C",
"f  c #1B243B",
"g  c #1E2A3C",
"h  c #22222D",
"j  c #232533",
"k  c #262A35",
"l  c #2B2B35",
"z  c #232539",
"x  c #29263D",
"c  c #242A3D",
"v  c #2D2E3A",
"b  c #282432",
"n  c #312E37",
"m  c #312F3C",
"M  c #2E3136",
"N  c #273039",
"B  c #2E313C",
"V  c #303136",
"C  c #32323D",
"Z  c #37383D",
"A  c #38393E",
"S  c #0E2044",
"D  c #132342",
"F  c #1C2642",
"G  c #1C2B43",
"H  c #112549",
"J  c #152849",
"K  c #1D2C4C",
"L  c #1C354E",
"P  c #16344C",
"I  c #192D50",
"U  c #1F3355",
"Y  c #1B3B54",
"T  c #232C42",
"R  c #2C2D42",
"E  c #232F49",
"W  c #282F49",
"Q  c #2D3242",
"!  c #25344C",
"~  c #2C354B",
"^  c #2E3B4C",
"/  c #283745",
"(  c #343542",
")  c #383644",
"_  c #363845",
"`  c #393945",
"'  c #353649",
"]  c #3A374E",
"[  c #353A4A",
"{  c #3C3D4A",
"}  c #243455",
"|  c #2A3653",
" . c #273853",
".. c #2B3B55",
"X. c #21345A",
"o. c #273B5A",
"O. c #2C3B5C",
"+. c #343D51",
"@. c #3D3F53",
"#. c #323754",
"$. c #403D46",
"%. c #413F4C",
"&. c #403F51",
"*. c #3E414D",
"=. c #304256",
"-. c #3D4354",
";. c #34435A",
":. c #3C445B",
">. c #3F4B59",
",. c #274561",
"<. c #334363",
"1. c #384361",
"2. c #354B65",
"3. c #384669",
"4. c #3D4D6E",
"5. c #3C4B62",
"6. c #375369",
"7. c #3E4E72",
"8. c #395771",
"9. c #3F5D77",
"0. c #42424E",
"q. c #49464F",
"w. c #434552",
"e. c #444653",
"r. c #454452",
"t. c #424656",
"y. c #454656",
"u. c #434452",
"i. c #494653",
"p. c #464956",
"a. c #444955",
"s. c #484A57",
"d. c #4A4956",
"f. c #42465A",
"g. c #49475B",
"h. c #42485A",
"j. c #444B5C",
"k. c #4A495A",
"l. c #4C4D5A",
"z. c #524F5D",
"x. c #4E515E",
"c. c #52515E",
"v. c #444D62",
"b. c #4A4D62",
"n. c #4B4D63",
"m. c #455164",
"M. c #4A5365",
"N. c #45536D",
"B. c #4B546B",
"V. c #47586C",
"C. c #4B5C6D",
"Z. c #535463",
"A. c #53556A",
"S. c #59576D",
"D. c #535A6C",
"F. c #5A5D6E",
"G. c #415473",
"H. c #4B5773",
"J. c #4C5A73",
"K. c #475779",
"L. c #4E5B79",
"P. c #525B73",
"I. c #515C79",
"U. c #5E5C71",
"Y. c #615F75",
"T. c #546172",
"R. c #596177",
"E. c #57647E",
"W. c #5A647B",
"Q. c #5C697A",
"!. c #656879",
"~. c #626075",
"^. c #5A6781",
"/. c #566880",
"(. c #5D6B83",
"). c #5E6F8D",
"_. c #5F788E",
"`. c #5F7A92",
"'. c #616D82",
"]. c #656E8B",
"[. c #64738D",
"{. c #6B758A",
"}. c #667593",
"|. c #6E7794",
" X c #6B7B95",
".X c #6B7B9A",
"XX c #667A95",
"oX c #727C95",
"OX c #75839B",
"+X c #7785A3",
"@X c #7986A3",
"#X c #7E8AA2",
"$X c #7D8CAC",
"%X c #7A8CB0",
"&X c #828DA4",
"*X c #828EAB",
"=X c #8392AC",
"-X c #8593B2",
";X c #8B9BB4",
":X c #8C9ABA",
">X c #859DB5",
/* pixels */
"Q [ l.r.` o v i.z.l.k.Z.S.A.f.' { { u.` ` w.*.*.*.0.0.{ ( ( ` *.*.u.t.p.p.p.y.r.d.d.*.{ w.w.u.t.-.>.j.b.b.b.n.A.] x x Y.~.U.Q r ",
"Q [ k.u.{ % ( d.{ 0.k.k.y.@.@.-.-.0.r.{ { r.*.*.` ` ` ` ` ` { *.u.-.*.*.w.w.u.*.` { ` ` { *.{ w.:.-.:.j.h.h.g.Z.' x r g.g.b.v s ",
"B ` p.{ C @ h v l C ` ) v v ' ] ` ( { C B ` B C l l l l B ( ( ( ` ( B B ( ( C v ( { { { u.u.*.a.[ Q Q ( ) ( { k.v v j y.t.l.c j ",
"c _ p.[ l O O @ @ @ @ @ @ % * * * % - @ + % + + + + + @ @ @ % @ % @ @ @ @ @ @ +   @ @ @ % $ + @ 3 @ + * * @ 3 h % j j t.-.j.s 7 ",
"g / j.*.N * O O h h h h j b j j k j l j h k h j h j j j j h h j j j l l k j j j k B B v B l j k l h h l l b v ( @ j l t.:.j.e < ",
"/ ^ M.>.N 5 % 3 B C C C C C B C ( B ` C C ( B ( B C ( ( C C C ( l ( ` { ) ( ( ) v ( ( ( ) ( l B C C V Z C C ( ) 6 ( l t.t.j.a 2 ",
"! =.T.C.^ 8 + 5 C C ( ( C C C C ( C ` ( ( ` B ( ( ( ( ( ( ( ( ( B ( ) ) ( ( ( ( B ( B B ) ( B ( C C C C C C C C - l z j.m.m.e 2 ",
"J .././.:.f $ 9 ` ( C C ( ` ( C ` ( { ` ( ` B ( { ` C ( ` ` ( B ( ( ( ( ( ( ( ( ( ` ( ( ` ` ( ` C ) ) C C ` ( C @ z Q P.'.^.G 0 ",
"U 4.).-XN.g # e ' ' v ( ( ( ) C ( ( ( ` ` ` ( ( C C C C ( ( ( ( ` ` ` ) ( ( ( ) ) ( ( ( ( ) ` ` ( ( ( ) ) ) ( ( 9 c ~ (.OX+X| q ",
"I 8..X:XH.f # e ' ] R ( ) ( ) m ( ( ( ` ` ` ( ( ( ( ( ( ( ( ( ` ( ( ` ` ) ( ( ) ) ( ( ( ( ) ) ` ( ( ( ) ) ) ( ( 7 f ~ (.@X*X3.} ",
"X.G..X:XL.F > e ' ] R ( ) ( ) m ( ( ( ( ( ( ( ( ( ( ( ( ( ( ( ` B ( ( ) ) ( ( ) ( ( ( ( ( ( ) ) ' ' ( ) ' ) ' Q 8 T #.].$X-X7.O.",
"<.K.}.-XI.T > 7 ' ' R ( ) C ( m ( ( ( ( _ ( ( ( ( ( ( ( ( ( ( ( B ( ( ( ( ( ( ( ( ( ( ( ( ( ( ) ' ' ( ) ' ) ( Q r W @.|.-X-X4.} ",
"<.K..X*XP.g , 7 B ( v ( ( C ` C ( ( ( ( ( ( ( ( ( ( ( ` ` ` ( ( ( ( ( ( B B ( ( ( ( ( ( ( ( ( ) ' ' ' ' [ ` ( Q 3 c @.oX;X:X4.} ",
"! N.OX&XB.8 % 6 v C v C C C ) C ( ( ( ( ( ( ( ( ` ` ` ` ` ` ` ` ( ( ( ( B B B ( ( ( ( ( ( ( ( ( ' ' ' ` ` ` ( B % s ] {.&X*X1.K ",
"g ;.'.{.h.< @ 5 l C M C C V A C C ( ( ( ( C C B ( ( ` ` ` ` ( ( ( ( ) ) ( B B B ( ( ( ( ( ( ( ( ' ' ( _ ` ( C B 3 j Q T.'.'.E t ",
"c / M.D.[ * @ - l C V C C V C C C ( ( ( ( C B B C ( ( ( ( ( C C B ( ` { ` ( B l ( ( ( ( ( ( ( ( ( ( ( ( ` ( B B 3 j c j.v.m.0 1 ",
"g [ x.-.B @ @ 3 l C C C _ C B C ( ( ( ( ( ( C C ` ( C ( ` ` ( C ( ( C ( ( ( ( C ( C C ( ( ( ( ( ( ( ( ( ( ( ( ( 7 j j h.-.-.e 1 ",
"s Q a.{ B @ O ; l C C C ( C v C ( ( ( ( ( ( C C ( C C C ( ( ( v C C C C C ( ( C ( C C ( ( ( ( ( ( ( ( ( ( ( ( ( 7 j s t.-.t.e 7 ",
"s N -.` v @ O ; l C C C ( C B ( ( ( ( ( ( ( C C ( ( ( ( ` ` ( C C C v v C C ( C ( ( C C ( ( ( ( ( ( ( ( ( ( ( C 5 j 9 @.@.y.r 7 ",
"j B *.` C @ @ ; l C C C ( C B ( ( ( C ( ( ( C C ( ( ( ` ` ` ( C C C v v C C ( ( ( ( C C ( ( ( ` ( ( ( ( ( ( ( C 3 j 9 { { w.j 9 ",
"k B 0.` C @ @ ; l C n v ( B B ( ( ( C C ( ( ( C C C C ( ( ( C v C C C C C ( ( ( ( ( C C ( ( ` ` C ( ( ( ( ( C C 3 j y 0.{ %.i y ",
"j C 0.` C @ . ; l n n v C B B ( ( ( C C ( ( ( C ( ( ( ( ( ( C C ( C C C ( ( ( ( ( ( ( ( ( ( ` ` C ( ( ( ( ( C C 3 b h 0.{ 0.y 9 ",
"h v 0.$.C X X : l n n l C B v ( ( C C C ( ( ( C ( ( ( ( ( ( ( ( ( ( C ( ( ( ( ( ( ( ( ( ( ` ` ( C C ( ( ( C C C 6 h y 0.0.i.y 3 ",
"y l 0.$.C X X u l n l v ( B Q ) ( C C C ( ( ( ( ( C C C C C C C ( ( C ( ( ( ( C ( ( ( ( ` ` ` ( C C ( ( ( C C C 9 h 9 %.i.d.9 % ",
"j C 0.( C @ . - l l v C C ( ( ( ( ( ( ( ( ) ) ( ( ` ( C ( ( C ( ( C C C ( ( ( ( ( ( ( ` ` { ` ` ( ( ` ` ( ( ( l - b 6 r.{ { b 3 ",
"9 l { ( C % @ 6 l l v m C ( ( ( ( ( ( ( ( ( ( ( ( ` ( C ( ( C ( ( C C C ( ( C C ( ( ( ( ` ` ` ( ( ( { { ( C C l 3 j 9 u.{ ) 9 % ",
"e c { [ l @ O 6 v v v m C ( ( ( ) ( ) ) ( ( ( ( ` { ( ( ( ( C ( C C C C ( ( C C ( ( ( ( ( ( ( ( C ` 0.0.( ( ( v 3 j 9 @.@.{ r 3 ",
"f ~ j.j.R + o 3 v v m m C ( ( ( ) ( ) ) ( ( ( ( { 0.` ( ` ( C ( C C C C ( ( ( ( ( ( ( ( ( ( ( C ) ) { { ( ( ( l 3 j s -.b.h.e < ",
"d ! B.R.+.< $ 9 v v v m C ( ( ( ( ( ( ( ( ( ` ` { 0.` ( ` ( C ( ` ( C C C ( ( ( C C ( ( ( C C C ) C C C v C ( z 7 s c f.R.B.t > ",
"d ..E.oXv.8 $ 9 v v m m C ( ( ( C C ( ( ( ( ( ` ` ` ( ( ( ( C ( { ` ( C C C C C C C ( ( C C C C ` C C n v ( ( c 1 s Q B.oX[.E 0 ",
"K <.[.=XB.e $ 7 v v m m C ( ( ( C C ( ( ( ( ( ( ( ` ( C ( ( C ) ` ` ( ( ( C C C C C ( ( C C C ( ) C C C m ( ( R 1 s ~ J.=X@X..d ",
"L 2.XX;XJ.f $ 8 R Q m m m ( ( ( ( ( ( ( ( C C C C ( ( C ) ( ( ` C C ( ( ( ( C C v C ( ( C C ( ( C n C C v v Q c e f ~ H.-X+X} w ",
",.9.`.;XJ.G # 7 l l v m C ( ( ( ( C C C C C ( ) C C C C C C C C C C C C C C C C C C ( ( ( ( C C C C C C C ( ( Q 8 a | L.$X$XU H ",
"Y 8.`.>XJ.g # 7 l v m C ( ( ( ( ( C C C C C ) ) C C C C C C C C C C C C C C C C C C C ( ( C C C C C C C C ) ( ( 8 r ! I.$X%XX.H ",
"P 6._.=XV.f # 7 v m C ( ( ( ( ( ( C C C C C ) ) C C C C C C C C C C C C C C C C C C C C C C C C C C C C C ` ) ( 8 r W P.+X+X} S ",
"L 2.(.OXv.e # 7 v C ( ) ` ( ( ( C C C C C C C C C C C C C C C C C C C C C C C C C C C C C C C C C C C C C ) ( C 7 r T B.].}.K q ",
"! ;.C.Q.[ 7 $ 3 m C ( ( ( ( ( C C C C C C C C C C C C C C C C C C C C C C C C C C C C C C C C C C C C C C C C v 3 s z v.B.P.d 0 ",
"T ^ j.M.c < % 3 m C ( ( ( ( ( B ( C C C C C C C C C C C C C C C C C C C C C C C C C C C C C C C C C C C C C C l * j s h.@.j.e 1 ",
"z Q j.j.l % % ; C C C ( ( ( ( ( ( C C C C C C C C C C C C C C C C C C C C C C C C C C C C C C C C ( ( C C C C v - j 9 y.' t.e < ",
"j ( x.l.l @ @ ; C C C C ( ( ( ( C C C C C C C C C C C C C C C C C C C C C C C C C C C C C C C C C ( ( C C C C C - j 9 d.) y.i 3 ",
"j ` c.r.C @ @ ; n C C C ( ( ( ( ( C C C C C C C C C C v l l l l l v v v v C C ( ( C C C C C C C C ( ( ( C C C C ; h h 0.%.u.9 3 ",
"j ` z.0.( % @ 6 n C C ( ( ( ( ( ( C C C C C C C C C C C C C C C v C C C C C C ( ) ( C C C C C C ( C C ( C C C C ; h h 0.%.r.9 4 ",
"b ) l.%.C % @ 6 n n C ( ( ( ( ( C C C C C C C C C C C C C C C C C C C C C C C C ) ( C C C C C C C m n C ( _ C B - h p 0.%.u.9 4 ",
"z ( y.{ C % @ 3 n C C ( ( ( ( ( ( C C C C C C C C C C C C C C C C C C C C C C C ) ( C C C C C C C v v C ( _ C M - h p 0.*.r.9 9 ",
"x ( k.&.) % @ 3 v C C ( ( ( ( ( ( C C C C C C C C C C C C C C C C C C C C C C C C C C C C C C C C v v v C ( C N 3 p p w.-.y.s 9 ",
"R ] n.g.] % @ 5 v B C ( ( ( ( C ( C C C C C C C C C C C C C C v C C C C C C C C C C C C C C C C m n v v C B N k = p p -.-.h.s 9 ",
"R @.A.Z.@.* + 5 v B C ( ( ( ( C ( C C C C C C C C C C C v v l l C C C C C C C C C C C C C C C n m m n C C B N k < p p -.-.t.s 8 ",
"R @.P.A.-., + 5 v B C ( ( ( ( ( C C C C C C C C C C C C C C v v C C C C C C C C C C C C C C C v C C C C B l l k * p p -.-.:.s e ",
"T :.P.b.j.7 % 6 v C C C ( ( ( ` ( ( ( ( C C C C v C C C v v C C C C ( ( ( C C v C C v v m C C C C ( C C v v l k 3 s s h.+.B.e e ",
"E ;.B.v.+.< + 9 v ( C C ( ( ( ` C ( ( ( C C C C v C C C C C C ( C C C C C C C C C C C C C C C C B B B B C C C l 3 j s j.v.P.f 0 ",
"! 5.J.Q.-.7 # p v ( ( C ( ( C ` C ( ( ( C C C C C C C C C C ( ( ( C C C C C C C ( C C C C C C C C C B B C ( C v 3 j c D.W.{.! d ",
" .N.(.#XB.f # s B ) ( C ( ( C ` C ( ( ( C C C ( C C C C C C ( ` ( C C C C C C C ( C C C C C C C C C B B C ) ( v 7 z T W.oX#X..F ",
" .N.[.;XP.T # 9 B ( ( ( ` ( C ` C C ( ( C C C ( ( C C v m C ( ( C C ( ( ( ( ( C C C C C v C C C C C v l C ( C l < z Q W.#X*XO.D ",
"o.G.}.;XJ.c $ 9 B ( ( ( ` ( ( ` C C ( ( C C ( ( ( C C C C C ( ( C C ( ( ( ( C C C C C C C C v v B B v l v C v k < c ~ W.=X$XO.D ",
"o.G.XX;XJ.T < 8 v ( ( ( ` ( ( ` C C ( ( C C ( ( ( ( C C ( ( ( C C C C C ( C C C C C C C C C v v B B B B B C B l < T +.E.-X$XO.J ",
"} 4..X-XP.T < < v ( ( ( ` ` ( ` C C ( ( C C ( ( ` ( ( ( ( ( ( C C C v v C C C C C C C ( ( C C v B C C C C ( ( Q $ c ^ I.=X$XO.K ",
" .2.XX;XJ.f $ s B ` { ( ( 0.0.( ( ( ( ( ( C v l C C C C C C C C ( C v C ( ( ( ( v ( C ` ` C ( l B B l B ( ( ( c 7 z ^ W.+X$X .D ",
" .;.E. X:.e $ 9 C B ( ` { ` ( ` ( ` { ` ` ( ( ` v v C C C ( ( ( C v v C C v C C C ( v ( ( ( ` ( C C B C ( ` ) ( 9 c T B.^.(.K D ",
"G ! v.P.~ 1 $ 5 ( C C ` ` C B ( C ` 0.{ ( C C ( v v C C C C v v v l v v C v C ( C ( v C v l C v C C C C C C C ( 9 ( c M.B.v.F t ",
"G +.v.M.[ 7 * * v ( C l l C ( B C ` { ` C l j l v v v v l l l l v l l v v v v v l v l C C l v k N B C B B l v C 6 ( v D.B.:.g e ",
"[ j.j.t.c @ % - % 3 3 - - 5 9 5 h h 9 6 3 3 - 3 - - - - - - - - 6 - % - 3 3 - - 3 3 - 6 9 3 9 5 * 3 6 9 6 6 6 9 h m b Z.n.@.z 8 ",
"A.!.F.l.{ 6 ( 0.z.d.l.Z.c.w.*.p.c.d.r.0.0.d.l.l.d.d.r.0.0.0.0.0.r.0.{ r.d.l.l.l.Z.l.{ r.d.r.d.d.0.a.l.x.c.c.c.Z.) C y k.y.u.x s ",
"{ Z.l.{ C @ n i.d.q.i.l.i.` ) 0.0.{ ` ( ` { { { { ` ( ( C ( ( ` ` ` ` { { { 0.d.c.r.C ( { ` { ` *.*.*.*.0.0.q.q.$.l b d.r.k.j j ",
"l x.Z.l.` O b 0.q.d.d.r.u.d.Z.Z.d.d.l.l.l.r.{ ` ` ( ( ( ` 0.d.l.d.d.l.d.{ ( ` 0.c.r.( r.c.c.c.l.l.j.w.*.0.0.q.q.C 6 b z.l.c.9 9 "
};
