/* XPM */
static char *_67d89db36a541ecbd27df78ca6e091dBA1b4j1j98anmxIR[] = {
/* columns rows colors chars-per-pixel */
"64 64 256 2 ",
"   c #2C3938",
".  c #4F3634",
"X  c #6D3A35",
"o  c #5B301A",
"O  c #56473A",
"+  c #6A4437",
"@  c #503A49",
"#  c #723D44",
"$  c #374D50",
"%  c #335A68",
"&  c #1C6272",
"*  c #3B6975",
"=  c #306B76",
"-  c #295857",
";  c #58585A",
":  c #514A4E",
">  c #675756",
",  c #6E4D50",
"<  c #56655C",
"1  c #6F6658",
"2  c #505C68",
"3  c #507073",
"4  c #676666",
"5  c #7A6867",
"6  c #64757A",
"7  c #757577",
"8  c #6F716E",
"9  c #685E64",
"0  c #AB3D2D",
"q  c #9C3726",
"w  c #964736",
"e  c #8E5233",
"r  c #A74637",
"t  c #B14D2D",
"y  c #A85C32",
"u  c #C75639",
"i  c #CE623B",
"p  c #995948",
"a  c #8F504D",
"s  c #A9564A",
"d  c #916951",
"f  c #B36C52",
"g  c #8D716D",
"h  c #B1796A",
"j  c #D2734F",
"k  c #D86B50",
"l  c #718679",
"z  c #588578",
"x  c #8E8976",
"c  c #B38B75",
"v  c #9D825D",
"b  c #CC875B",
"n  c #CB8866",
"m  c #D09170",
"M  c #EE9766",
"N  c #D4A379",
"B  c #F7A874",
"V  c #F2AF76",
"C  c #EC8D54",
"Z  c #F2C078",
"A  c #1C7290",
"S  c #297589",
"D  c #2D738E",
"F  c #1979A6",
"G  c #266CA5",
"H  c #4B7987",
"J  c #537B89",
"K  c #687A83",
"L  c #777A85",
"P  c #8C7C84",
"I  c #398699",
"U  c #318893",
"Y  c #1E99B4",
"T  c #1D8DA8",
"R  c #258BA6",
"E  c #358AA7",
"W  c #2595AA",
"Q  c #3A98A9",
"!  c #2B94B3",
"~  c #239CB9",
"^  c #279AB6",
"/  c #359BB6",
"(  c #298EB1",
")  c #1DA6B8",
"_  c #24A4BB",
"`  c #2BA3BB",
"'  c #2AA7B8",
"]  c #37A6B8",
"[  c #34ABB5",
"{  c #248C92",
"}  c #568688",
"|  c #4A8896",
" . c #548997",
".. c #4A959B",
"X. c #518A90",
"o. c #688486",
"O. c #788789",
"+. c #658A95",
"@. c #689899",
"#. c #779698",
"$. c #768F8B",
"%. c #52A29B",
"&. c #4898A6",
"*. c #5798A7",
"=. c #4A98B1",
"-. c #679BA5",
";. c #7499A5",
":. c #47A6AA",
">. c #58A5AA",
",. c #47A9B8",
"<. c #57A8B6",
"1. c #4AB2BA",
"2. c #58B6BA",
"3. c #4DB2A9",
"4. c #68A5A9",
"5. c #78A8AA",
"6. c #77B5AB",
"7. c #66A9B6",
"8. c #79ACB5",
"9. c #68B8B8",
"0. c #7AB7B8",
"q. c #67B5A9",
"w. c #6EA29A",
"e. c #69C4BB",
"r. c #7AC3BC",
"t. c #5AC2BB",
"y. c #2AACC3",
"u. c #26AAC2",
"i. c #36ACC2",
"p. c #2CB2C3",
"a. c #2EBBC9",
"s. c #3AB4C4",
"d. c #33B5C9",
"f. c #33BBCA",
"g. c #3BBCCD",
"h. c #36B6C6",
"j. c #3ABDD2",
"k. c #1DA8C1",
"l. c #47AAC4",
"z. c #43BCCD",
"x. c #4AB8C8",
"c. c #56B9C7",
"v. c #46BCD1",
"b. c #59B1C7",
"n. c #67BAC5",
"m. c #78BBC4",
"M. c #68B1CA",
"N. c #449DC6",
"B. c #3CC1CC",
"V. c #35C1CD",
"C. c #3CC3D0",
"Z. c #49C4CC",
"A. c #5BCDCE",
"S. c #56C5C9",
"D. c #46C2D3",
"F. c #59CCD6",
"G. c #55D2D3",
"H. c #55D0CF",
"J. c #69C6C8",
"K. c #79C8C9",
"L. c #77D1CA",
"P. c #68CCD9",
"I. c #78CCD4",
"U. c #65D4DB",
"Y. c #6CD4DA",
"T. c #6BDADA",
"R. c #68D5D5",
"E. c #74D4D4",
"W. c #77D7D8",
"Q. c #6FD1CB",
"!. c #5CCEE0",
"~. c #63CDE1",
"^. c #61D0E1",
"/. c #858887",
"(. c #978788",
"). c #869897",
"_. c #989997",
"`. c #8F908E",
"'. c #AB948A",
"]. c #AC958E",
"[. c #8CA49A",
"{. c #B4AA96",
"}. c #8B9BA2",
"|. c #88A9A7",
" X c #98A9A6",
".X c #88B3AB",
"XX c #97B3A9",
"oX c #88B8B7",
"OX c #98BAB6",
"+X c #8DABB3",
"@X c #A6B7AB",
"#X c #A6BBB6",
"$X c #B1B2AB",
"%X c #D2B395",
"&X c #EDB58B",
"*X c #C8B9A8",
"=X c #D6BBA5",
"-X c #D6AA93",
";X c #89C4BA",
":X c #98C3BB",
">X c #92C2AC",
",X c #A6C5BA",
"<X c #B6C8B5",
"1X c #FBC798",
"2X c #F4CB93",
"3X c #C5C8B9",
"4X c #D4CDB6",
"5X c #FADAB7",
"6X c #EECFAC",
"7X c #FDE3BD",
"8X c #87BCC4",
"9X c #98BBC4",
"0X c #99BDD1",
"qX c #A8BFC7",
"wX c #86C8C7",
"eX c #98C9C7",
"rX c #85D2CD",
"tX c #9AD4CC",
"yX c #86CDD3",
"uX c #97CDD6",
"iX c #84DADC",
"pX c #88D7D8",
"aX c #9BDCDB",
"sX c #97D7D6",
"dX c #A7CAC8",
"fX c #B5CAC7",
"gX c #A5D3CC",
"hX c #B9D4CA",
"jX c #A2DBD3",
"kX c #A3DDDB",
"lX c #A6D6D4",
"zX c #B8D9D6",
"xX c #ABCCD7",
"cX c #9CE2DD",
"vX c #95E1DE",
"bX c #A2E1DC",
"nX c #BCE2DC",
"mX c #97DEE1",
"MX c #9BE3E2",
"NX c #96E4E2",
"BX c #B0E7E6",
"VX c #A4CEE0",
"CX c #C8D5C7",
"ZX c #D5D9C6",
"AX c #C4D9D3",
"SX c #CFD3CA",
"DX c #E7DBC5",
"FX c #FADAC7",
"GX c #C7E2DB",
"HX c #D8E5D7",
"JX c #DCE0CC",
"KX c #FCE8D2",
"LX c #C8E9E5",
"PX c #D3E9E5",
"IX c #F3F2E5",
"UX c #C6DCE2",
/* pixels */
"t r r r p h x [.6.9.n.n.n.J.e.e.r.wXwXrXrXrXrXrXrXrXrXrXuXuXlXlXzXAXGXGXAXzXhXdXgXtXtXtXjXtX;X|.l 7 g P P (. XOXwXyXyXI.K.K.J.n.",
"u t r q w p g x |.q.9.n.n.9.9.0.oX8XwXwXL.wXwXrXrXpXpXsXsXsXkXkXnXGXLXLXGXzXzXxXgXgXgXgXjXtX;X|.O./.(.(.(.(._.XXwXyXyXI.K.K.J.J.",
"M j k t t r w d x [.8.0.9.0.6..X.X.X;Xr.;X;XeXeXsXpXsXsXaXaXkXkXnXLXLXLXLXnXzXlXlXjXjXjXkXtXeXoX).)._._.`./.).+XoXyXpXW.I.Q.Q.J.",
"&X&XB M j f t w a x  X.X0.0..XXXXXXXOX:X.X:XdXxXsXsXsXsXsXaXaXkXBXBXBXLXBXBXzXlXjXsXjXjXbXbXtX:XOXXX X_.`././.|.0.wXpXpXI.E.Q.Q.",
"5X1X1X1X&XB j u w w g `.|..X:X,X<X3X$X_._. X,XgXsXsXaXsXaXsXaXaXBXBXBXBXbXbXkXbXbXbXkXkXkXbXkXtXeX+X).O./.O./.}.0.wXyXyXyXI.K.J.",
"7X5X5X6X1X&XB C u r a 5 g _.#X3X*X%X].c {.$X,XeXuXsXsXsXaXaXcXcXcXcXcXcXMXMXMXMXMXcXaXaXaXaXbXkXeXoX#.K K 6 L O.5.m.8XwXwXK.K.K.",
"KXFX5X5X6X&XB M j f w a , 9 g c h h h c {.$X:X:XeXuXsXaXaXaXvXvXvXvXvXvXMXMXMXMXMXMXaXcXcXaXcXbXsX8X5.+.K 6 6 K #.8.oX0.8Xm.m.m.",
"FXDXDX4X6X%X-Xm n f f f , , # X w r h {.$X@XOX:XeXeXtXsXaXaXaXNXNXMXMXMXMXMXNXNXMXMXcXMXMXMXaXaXaXeXoX5.#.o.6 6 o.;.5.5.+X8.oXoX",
"SXSX3X$X{.].c g h g g g , , + X w f ].$X#X#X:XOX#X#XOX:XtXsXpXvXNXvXvXvXvXvXNXvXMXcXcXcXcXcXcXcXsXsXeXoX5.|.#.o.3 6 O.).|.|.|.+X",
"#X@X`.l ; < 4 4 9 > > , : : . X s h {.@X:X:X:X:X,X#X,XeXeXsXsXaXcXaXaXaXaXaXsXsXaXaXbXcXcXcXcXcXaXsXsXtXeXeXoX|.o.6 o.$.|.|.|. X",
"XX#.6 2 $ < 3 l O.x /./.7 4 , # s c $XOXwXwXwXeXdX,XdXeXeXtXsXaXjXlXlXlXlXjXeXeXgXlXlXkXbXbXcXcXcXaXsXsXjXlXgXOX).$.).[. X X X X",
"+X$.3 3 +.@.5..X|.|.XXOX:X).g a h ].@XoXwXK.wXtXgXdXdXgXeXtXjXlXgXfXfXfXfXdX,X#XdXdXgXgXjXkXcXbXbXkXjXjXlXlXxXdXXX[. X#X@X@X X X",
"#.;.5.5.;X0.q.q.6.oX;X;X;XOX_.g d '.#X;XL.pXiXsXsXjXjXgXgXgXgXdX<X3X3XCXCXCX3X<XfXdXdXdXgXjXtXtXjXlXlXlXgXzXzXfXOXXXXX#X,XOXXX|.",
"#.|.8XuXr.r.9.9.6.0.r.r.L.wXOX_.g '.OXwXpXiXiXpXsXsXsXlXgXgXhXhXCXZXZXZXZXZXZXCXfXfXfXdXdXgXeXeXgXgXzXhXfXfXhXfXOXXXOX,X:X;X.X6.",
"9X9X9XwXwXK.9.9.9.e.r.K.L.L.wXOX(.].,XtXpXiXiXiXpXsXaXjXlXzXGXHXAXSXHXHXHXHXHXAXhXfXfXdXdX,X#XOXdXhXhXAXfX X$X X X|.OXeX;Xr.q.q.",
"0X0X8Xm.K.J.J.t.e.J.J.J.Q.Q.L.eX$X{.#XtXpXiXiXiXiXaXaXaXkXzXLXPXGXGXGXPXPXPXGXzXzXfXdXdX,XOXXXXX#XhXAXAX@X/.(./.).)..X;XK.J.e.2.",
"7.n.n.n.S.S.S.S.S.S.A.P.R.R.P.K.OX#XdXeXpXiXpXpXiXpXaXaXaXMXBXBXBXnXnXnXnXzXzXxXgXgXgXeXeX:XOXoX:XgXzXzX@X/.g g g O.5.oX9.J.S.c.",
"2.2.c.c.c.S.S.H.H.H.G.F.R.R.P.K.wX9XdXxXsXpXiXiXiXiXiXiXiXNXNXMXbXkXkXkXsXtXeXeXtXtXtXtXeXeX;X;X:XgXlXgX#X`.P (.g O.#.6.9.c.c.c.",
",.,.l.l.x.x.Z.S.H.H.G.A.R.R.R.Q.K.uXxXxXsXpXW.W.W.iXiXiXiXiXiXiXpXpXpXpXrXwXwXwXpXsXsXsXsXrXwXwXwXtXtXeXOX}.`.(.7 L +.4.9.c.c.c.",
"] ,.,.1.b.c.c.S.H.H.A.A.A.A.A.Q.I.pXVXVXuXW.T.T.W.W.W.W.W.W.I.E.E.E.L.L.L.W.iXpXpXpXpXpXpXpXrXrXwXsXrXwXoX5.#.O.6 K +.@.9.2.2.c.",
",.,.,.<.<.b.c.c.S.S.S.A.A.A.A.A.R.W.uXuXpXW.T.T.T.W.W.W.W.W.W.W.E.E.E.E.W.W.W.W.W.W.iXiXiXiXW.W.I.I.I.I.K.4.+.J 3 3 3 H | >.2.2.",
":.:.>.4.7.7.7.2.c.c.S.A.A.A.H.H.G.P.I.pXW.Y.T.T.T.T.T.T.T.T.T.T.T.Y.Y.Y.W.W.W.W.W.W.W.W.W.W.E.E.I.I.I.I.n.7. .H * * * * | >.3.2.",
"..%.-.;.+X8.5.7.2.c.c.S.A.G.G.G.G.A.P.Y.T.T.T.T.T.T.T.T.T.T.T.T.T.T.T.Y.T.R.Y.T.Y.T.T.T.Y.Y.Y.Y.Y.Y.R.R.J.c.&.| D * * * | ..3.3.",
"Q %.4.5.OXOX.X6.4.7.c.c.A.G.G.G.G.A.P.I.Y.E.I.I.W.E.E.E.E.E.E.E.E.E.E.E.E.Y.Y.Y.U.U.U.U.U.U.U.U.U.P.U.U.P.A.2.&.&.| | | U ..3.3.",
"Q =.7.oX:X,X<X<XXX;.*.<.F.F.G.H.G.Y.I.uXwX8X+X+X+X.X.XoX;Xr.L.L.wXwXwXyXI.I.W.Y.U.F.U.U.U.P.^.F.U.U.U.U.F.S.S.2.2.<.>.&.I ..:.3.",
"/ ,.<.0.eXhX3X3XfX+X-.7.2.J.J.e.9.*.K 3 ; ; > > g 5 5 8 8 8 l l l [.XXXXOX0.m.I.R.R.R.R.R.P.~.~.^.F.F.F.F.F.Z.x.S.2.2.>...:.:.3.",
"/ ,.<.7.wXgXhXhXhXOX5.;.5.@.z < $   . o + o d h n n n n b b f f y y f h ].$XdXrXL.Q.Q.E.P.P.P.~.~.^.^.!.F.F.D.D.Z.S.c.2.<.<.,.,.",
"] ] ,.<.K.rXjXjXgXeX.X#.6 < > 1 : O d p h s y &XM M M M M M C C C C j j p d x XX;XwXI.I.Y.P.P.P.U.^.^.!.F.F.D.Z.1.2.2.2.<.<.1.] ",
"` ` ] ,.<.K.pXsXsXoX4.@.).8 c d o d -Xn 1X&Xe N 1X2X1X&XV V B B M M M M M b y d `.:XrXW.~.~.P.Y.P.P.F.F.Z.Z.Z.Z.e.6.0.yXK.c.1.[ ",
"_ ` ` ] ] 1.c.J.9.7.>.@.|.#X*X4X{.6X6X&X&X&Xe m 6X2X6X2X1X1X1X1XB B B B V B M b d x |.oXK.I.K.K.P.P.J.J.9.e.e.q.@.w.5.0.<.1.,.,.",
"_ _ _ _ [ ] ] 1.1.1.,.<.*.8.zXHXIXIX=Xm 6X&Xe %X6X6X7X5X7X7X5X5X&XV V V V V Z V &XN c v x ).oXwXK.K.K.oXXX_.x 1 $.4.q.2.,.] l.l.",
"_ _ _ _ ' [ ] s.] ] l.l.<.>.0.lXAXJX4X*X5X1 + %X5X6XKXFXKXKXFXFX%X&X&X&X2X2X2X2X2X1X&XN c v 8 l o.o.l x d a d x +Xm.c.1.l.l.l.N.",
"! ! ^ ` ` ` ' p.p.h.s.l.l.1.2.K.sXgXfX<Xx x v d -X5XKXKXKXKXKXFX=X%X=X%X=X6X6X5X5X6X1X1X&X&XN n p p w y y p x OXn.c.x.x.l.s.i.] ",
"! ! ^ ` _ _ ' p.p.p.s.l.1.1.1.2.n.K.wX;X>X<X{.%Xc -X6XDXKXIXKXDX*X*X*X{.4X4XDXDXKXFX5X5X6X1X&Xb j i t t t f [.K.S.Z.z.s.h.s.[ ] ",
"W ^ ^ ` _ _ ' ' ' [ ] ,.<.<.<.<.2.c.S.J.tX:X,XJXZX{.<XCXJXHXHXCX@X@X<X{.3X3XZXJXIXJXZX4X4X4X*Xc n j t t y x 6.n.Z.D.g.h.h.i.' ' ",
"W ^ ^ ' _ _ ' [ [ ] ,.>.<.7.7.<.b.x.x.S.2.9.4.|.@X<X,X,XfXhXfX,X X#X<X[.<XCXSXHX#X[.$.$.l $./.x c c t t d x w.2.Z.D.g.h.h.i.' ' ",
"W W ~ ' ` ` ` ] Q &.*.7.8.8.5.4.b.b.x.Z.Z.x.2.<.+.#.|.|.|.|.|.|..X,XXX XPXPXSX X#.|..XoXw.5.8.|.).g s r p g w.J.x.z.z.s.s.] ] ] ",
"W W ^ ^ / / / Q *.4.0.8XeX9XoX8.b.b.x.Z.D.D.Z.x.n.8.4.@.+.} 3 3 z z } .XLXPXfX}.9XeXoX8.-.*.*.4.8. Xg w a g [.9.c.x.l.l.l.] ] ] ",
"W W ! / / / =.=.8.9XdXdXxXdX;X0.2.b.x.z.B.B.Z.Z.x.c.n.9.wX0.q.q.%.q.%.4.8.+X+X+X+XdXOX+.-. .*.7.7.7.oX7 e f `.8.M.b.b.l.l.,.,.=.",
"E E Q Q &.=.<.8.9XqXfXxXzXgX;Xr.2.x.x.g.g.B.D.D.Z.Z.c.n.n.9.2.2.t.Q.e.K.m.0.oX+XdX#XOXOX-. .*.M.M.M.c.5.d d x  X8.M.7.<.<.<.=.=.",
"D I &.&.*.4.6.oXdXdXgXgXsXyXK.c.x.h.h.f.g.g.g.z.z.v.v.x.c.c.c.x.Z.Z.Z.c.b.M.M.8X9XdXdXeX8.7.<.b.M.M.n.4._.g g '. X;.+.+.+.} J H ",
"H H |  .-.4..X>X,XdXeXrXK.n.1.] h.a.d.d.d.g.g.g.v.v.v.v.v.v.v.D.C.C.D.v.c.b.M.m.tXlXlXuX0.7.<.b.M.M.M.;.$.g d h (.P 7 7 7 8 4 9 ",
"3 3 J X.4.4.6.0.wX8Xm.n.1.,.] s.d.d.d.d.d.g.g.g.g.v.v.v.v.v.D.D.D.C.D.v.x.c.M.m.pXaXaXsX0.7.7.7.m.8.5.O.7 d p s s a a a a a a a ",
"< 4 6 } *.>.>.7.n.2.,.,.] ] i.d.d.d.a.d.d.d.g.g.g.g.g.g.z.z.B.C.B.B.D.z.x.x.c.P.E.iXpXL.K.6.5.8.+X|.`.g d p r r 0 q q 0 0 0 r r ",
"> 4 3 } *.:.,.,.,.] / ^ ` u.y.y.p.p.p.p.d.d.d.d.f.g.g.g.g.g.g.g.B.B.B.z.z.v.v.x.Z.S.J.J.q.5..XXX_.'.h h s s u u 0 q q 0 u u u t ",
"1 4 6 | &.Q / ] / ^ ^ _ u.u.u.y.u.p.p.p.a.d.d.d.d.d.f.f.f.f.V.f.B.B.B.B.D.D.z.z.j.z.c.9.0.XX@X$X'.c h f i k k u u 0 0 t u k i u ",
"8 6 J | E ( ! ^ ^ ~ ~ ~ ` u.u.y.' p.p.p.d.d.d.d.d.a.a.a.f.f.f.f.f.B.B.B.B.B.B.C.j.v.c.9.OX@X*X*X{.m n j k k k k i t t t i k k k ",
"6 K J E E ! ^ ^ ^ ^ ~ ~ ` u.u.y.u.p.p.p.d.d.d.f.f.a.a.a.f.f.f.f.g.g.g.g.B.B.V.V.j.v.c.m.9X#X*X=X%X-XN m M M M C j y t t j j j j ",
"; 3 | E ( ( ( ! / / / ~ u.u.u.u.u.y.y.p.d.d.d.d.a.d.d.d.d.f.f.j.j.j.z.z.z.j.V.V.d.v.P.yXxXfX4X4X6X2X&X-XN &X&X&Xm j r s f j m n ",
"O ; H | E ( ( ! ! ! ^ ^ _ _ ) ) ) _ u.y.i.i.p.p.d.d.d.d.d.d.f.f.g.g.g.z.z.g.j.g.z.c.J.wXgXhXCXZX6X6X6X6X=X6X6X6X-Xh p s f n m c ",
"X X : 3 H E ( ( W W ^ ^ _ ) ) ) ) ) _ ` i.y.y.p.d.s.s.h.h.h.h.h.h.d.d.d.g.g.v.x.b.2.7.0.eXdXhXZXDX6X6X6X4X6X6X4X=Xc p p h m c h ",
"q o . : 3 H E ( W W W W W ~ _ _ ' W / / ] y.u.u.d.s.h.s.s.] ,.,.,.,.] s.l.b.b.M.*.-.@.@.|.OX,XhXZXZXDXDXDXDX4X4X=Xc g h h '.c x ",
"t r X . : % D E W W W W W ! / ] =.<.M.b.] ` u.u.p.p.' [ [ c.m.8.+. . .| *.*.-.+.K L K K 6 ).XX,XCXCXZXZXZXSXZXZX$X].x c '.{.'.g ",
"j j f p X @ $ % S U I I | &.&.*.8.m.m.n.] ` _ u.y.y.' [ ,.9.uXxX X/.6 2 3 3 3 6 7 7 7 7 4 8 O.[.@X,X<XhXhXhXhXhX#X@X_._._._.x 8 ",
"j j j j p , @ @ $ % 3 6 6 L L O.}.5.<.,.' ' _ ` i.' ' [ Q >.uXUXfX_.g 5 > : : > 4 4 7 7 4 2 4 o.#.|.OX,X,X,X,X,XOX#XXX X`.$.6 < ",
"h n n m f p , . . . : > 9 g g P ;.7.:.Q ' ' ~ ~ y.` ' [ Q ..oXAX3X$X{.{.g O . > > 4 8 L 4 6 3 % 3 } 4.oXoXoXOXOX.XoXOX|.).o.3 % ",
"d g h c c h a , @ . . . , g /.$.>.=./ ! ^ ~ ~ ~ _ _ ' [ Q ..@.fXCX3X3X*X'., . , ; ; 4 6 K 3 * = S D ..*.4.4.8.8.8.8.8.8.@.} 3 % ",
"O : > 1 5 1 , , @ . . O 5 P #.-.=.! ! ! ~ ~ ~ Y _ _ ' [ :... .|.fXCXCX3X$X1 , 5 4 ; ; ; 3 3 } I I E E E &.*.-.4.4.>.4.4. .} 3 * ",
"  $ $ $ $ $ $ : @ @ O > 6 +.*.=./ ! ! ^ ~ ~ ~ Y _ _ ' [ Q &.X.@.oXgXAXCX$X4 , 5 5 4 > : ; 2 3 X.&.E R U U U I ..&..... .X.} 3 * ",
"$ $ $ % 3 * * 2 @ @ : 4 H Q Q R ! ! ^ ^ ~ ~ ~ ~ _ _ ' ] / ,.....4.0.gXzX#X7 4 g g 5 > , : ; 2 3 I E W W R { U U I I I | X.X.3 3 ",
"; ; ; $ * = S S 2 @ : 4 H R W Y ( ! ^ ^ ~ ~ ~ ~ _ ` ] ] / / Q Q :.<.m.uXdXO.8 (.(.c g 1 , : : 2 D E W W W R R A S D S S = = = * ",
": : $ % = = S S * : : 9 X.U R T ( ( ( ! ~ ~ ~ Y ~ _ ] ] ] / / ' ' ] <.m.oX$./.$X*X*X'.g , : : : S U R R T T T F A S S S = = = = ",
"$ - % = S A G G S * ; > o.| U { R ( ( ( ~ Y Y Y ^ ^ ] ] / / _ _ _ _ ] <.4.+.}.<XZX4X*X'.d , . $ % D R R T T F F A A A S & & & & ",
"- - & = A G G G S * ; > O.} U A R T R T Y Y Y Y ~ ^ / / / ` _ u.k.k.` :...} ).@XZX4X4X%Xg , .   % S U R T F F F A A A A & & & & "
};
