/* XPM */
static char *_12d3d2438284428c2705d4f88e9a217Occs3z6JpKQKJsC7[] = {
/* columns rows colors chars-per-pixel */
"64 64 256 2 ",
"   c #020A05",
".  c #091110",
"X  c #162D0A",
"o  c #2B3412",
"O  c #020A37",
"+  c #0F122C",
"@  c #1A283C",
"#  c #2C3135",
"$  c #201920",
"%  c #4E2E14",
"&  c #51362C",
"*  c #5B3427",
"=  c #384A34",
"-  c #324414",
";  c #504E37",
":  c #664735",
">  c #6F5537",
",  c #4B6839",
"<  c #595425",
"1  c #0D134B",
"2  c #241846",
"3  c #1A254E",
"4  c #272747",
"5  c #35384C",
"6  c #373757",
"7  c #2C2F54",
"8  c #3B3968",
"9  c #313271",
"0  c #151863",
"q  c #433B59",
"w  c #493B4C",
"e  c #4A3870",
"r  c #364B55",
"t  c #394465",
"y  c #374B74",
"u  c #575747",
"i  c #4B4857",
"p  c #544B58",
"a  c #585557",
"s  c #4D4E4E",
"d  c #665448",
"f  c #67575B",
"g  c #71554D",
"h  c #526854",
"j  c #676858",
"k  c #776857",
"l  c #687858",
"z  c #706D50",
"x  c #484768",
"c  c #544B67",
"v  c #595668",
"b  c #474876",
"n  c #4B5574",
"m  c #5A5776",
"M  c #50516E",
"N  c #665A67",
"B  c #735C67",
"V  c #655976",
"C  c #6A5572",
"Z  c #5C6569",
"A  c #5A6478",
"S  c #556F6D",
"D  c #6A6768",
"F  c #786768",
"G  c #677468",
"H  c #777866",
"J  c #686678",
"K  c #776A77",
"L  c #697477",
"P  c #787778",
"I  c #8F6D30",
"U  c #85553E",
"Y  c #886A5A",
"T  c #8E7055",
"R  c #856B68",
"E  c #897768",
"W  c #957967",
"Q  c #877979",
"!  c #957A78",
"~  c #906A6B",
"^  c #936867",
"/  c #6D8B5B",
"(  c #77856A",
")  c #7A8776",
"_  c #6D8974",
"`  c #5A8069",
"'  c #A18B33",
"]  c #968653",
"[  c #AD9157",
"{  c #898678",
"}  c #968778",
"|  c #8A9279",
" . c #96987A",
".. c #8F8B6A",
"X. c #A78B7A",
"o. c #A6967A",
"O. c #B79977",
"+. c #B1926A",
"@. c #B5A774",
"#. c #A5A46B",
"$. c #C79A74",
"%. c #CBAB78",
"&. c #C3A055",
"*. c #4F3983",
"=. c #355088",
"-. c #525389",
";. c #665C8A",
":. c #5B668A",
">. c #596C93",
",. c #686888",
"<. c #766A86",
"1. c #697687",
"2. c #787786",
"3. c #666895",
"4. c #797996",
"5. c #6E7197",
"6. c #5C6DA8",
"7. c #6F71AA",
"8. c #4E5BA7",
"9. c #283F83",
"0. c #867A88",
"q. c #857A94",
"w. c #8F758A",
"e. c #887AA5",
"r. c #798788",
"t. c #7A8C95",
"y. c #7685A4",
"u. c #7A8BB1",
"i. c #888788",
"p. c #978787",
"a. c #979589",
"s. c #888798",
"d. c #978B97",
"f. c #8A9599",
"g. c #999799",
"h. c #879585",
"j. c #A78B87",
"k. c #A79789",
"l. c #B79A87",
"z. c #A79997",
"x. c #B89A97",
"c. c #AD8B91",
"v. c #96A491",
"b. c #A8A687",
"n. c #B7A689",
"m. c #A9A798",
"M. c #B9A798",
"N. c #B8B498",
"B. c #B2B58C",
"V. c #8989A5",
"C. c #938DAA",
"Z. c #8794A9",
"A. c #9798A8",
"S. c #989AB5",
"D. c #8D8EB6",
"F. c #A699A7",
"G. c #A69BB7",
"H. c #B298A6",
"J. c #98A6A7",
"K. c #9CB4AA",
"L. c #9BA7B8",
"P. c #8FA6BA",
"I. c #A8A5A8",
"U. c #B8AAA6",
"Y. c #B8B5A8",
"T. c #A7A7B8",
"R. c #B7ABB8",
"E. c #ABB5B8",
"W. c #B8B7B6",
"Q. c #A9B6A8",
"!. c #C49A86",
"~. c #C59C93",
"^. c #C6A788",
"/. c #C6B488",
"(. c #C6AA97",
"). c #C8B797",
"_. c #D4B999",
"`. c #D6AC8F",
"'. c #E9B898",
"]. c #C79DA9",
"[. c #C6AAA6",
"{. c #C6B7A9",
"}. c #D7BAA6",
"|. c #C4AAB4",
" X c #C8B9B7",
".X c #D3BBB8",
"XX c #D6AAAE",
"oX c #EAB7AC",
"OX c #BCC4A9",
"+X c #BDC4B7",
"@X c #AFC0B0",
"#X c #D1C694",
"$X c #F0C698",
"%X c #C7C4A9",
"&X c #D7C5A9",
"*X c #C9C6B7",
"=X c #D7C9B8",
"-X c #D6D4B7",
";X c #CED4AF",
":X c #E6C7B6",
">X c #EBCEB3",
",X c #EBE3BB",
"<X c #9399C4",
"1X c #A598CE",
"2X c #99A9C4",
"3X c #A9AAC5",
"4X c #B6AAC4",
"5X c #AAB5C6",
"6X c #B8B8C7",
"7X c #B7B8D7",
"8X c #ACB1D5",
"9X c #B7B7EB",
"0X c #9AA5E3",
"qX c #C7B9C8",
"wX c #CCB8CF",
"eX c #C9BCEB",
"rX c #BBC3C8",
"tX c #BCC4D6",
"yX c #B1C6D0",
"uX c #B8C9E6",
"iX c #C7C7C7",
"pX c #D8C8C6",
"aX c #CCD4C8",
"sX c #D6D5C8",
"dX c #C8C8D8",
"fX c #D6CBD7",
"gX c #CBD4DB",
"hX c #D7D6D8",
"jX c #E4CCC7",
"kX c #E5D6C9",
"lX c #E6D9D9",
"zX c #F3D7CF",
"xX c #DAE3D8",
"cX c #DAE9CE",
"vX c #EAE4DA",
"bX c #F9E6DA",
"nX c #EEECCF",
"mX c #C7CBE4",
"MX c #D7D8E7",
"NX c #D7D9F7",
"BX c #CDD0EA",
"VX c #E4DBE8",
"CX c #E8D8EE",
"ZX c #DBE4E7",
"AX c #DDE9F6",
"SX c #E7E6E7",
"DX c #F7EBE7",
"FX c #EBF2EA",
"GX c #FAF6EA",
"HX c #E8E9F8",
"JX c #F6E9F9",
"KX c #EBF5F9",
"LX c #FDFBF5",
"PX c #F4FCFE",
"IX c #FDFDFE",
"UX c #F8F5F9",
/* pixels */
" X+X+X[.l.%XN.[.j.(.B.).~.[.}.N.^.M.=X=X}.!.{.Y. XO.(.iX6X(.X. XE.^.+. XR.M.!.XX*X{.x.k.N.m.U.j.qX*X{.! .XY.aXx.x.%XB.(.! qXpX{.",
"U.SXhXX.W vXhX{.~ pXvXpXc.XXJXhX~.M.SXvX{.} sXhXfXX.}.gXgXM.X.hXhX&XT iXgXbXW (.ZXpXX.E cXaX=Xg pXZXkXY (.SXSXW U xXcX}.Y jXSXvX",
"&XKXKX}.O.IXHXbX^ DXMXIXp.jXJXKX}.U.HXSXlXz.IXBXUXj.jXHXKX[.k.IXAXzXW SXZXDXU =XNXGX).E IXgXDX> bXdXIXT ).MXKX^.+.IXmXbXT lX6XLX",
"b.5.D.o.k <X3. X% *XA gX; (.{ 8Xj.i.A.f.dXw.dX>.6Xp..XV.L.x.j.T.3.pX! 5Xx pX: z.-.g.} ; 3Xb  X% sXb BX< n.3.3Xo.I 8X9 pX% qXb dX",
"sXu.9X{.a.9X6.lX> SX:.NXP {.Z uXz.dXyXV.MXA.7X>.HXz. XZ.7X|.U.6X<XfXK AXt JXR hX8.4.N.k.uX:.JXY iXb HXY {.7.8Xl.> 9X8.lX> MX-.7X",
"UX1 >.LXDX-.O HXUX8XO <XIXJXx 6.LXZX1.n UXUX6Xr 5XvXSXn y.DXSX2.7 VXIX8XO 6XlXVX1 m GXSX1.O dXbXiXO C.GXDX7 n GXGX-.O fXGXwX1 y.",
"R.r 1.pXhXS r f.JXs.r t.CXT.5 1.qXdXt.1.W.iXf.S f.pX XA 1.pX=XZ n z.sX1.r a.kXg.r s U.aXG r I.jXL 4 r.kXI.r v  X|.h r { pXA.r L ",
"R.r._ m.W.l _ h.U. ./ / m.iX) / U.W.t.J.m.*Xv.f.f.{.m.t.t.U.Y.r._ b.B.K.S { b.m._ j a.{.l l H .XA.S l U.I.S _ } |.l / l |.f.S ) ",
"6X9.6.sXhX6.9 6XcX2X9.y.SXiXy 6.*XBXu.>.W.vXT.6.<XDXaX=.6.sXlX7.=.fXDX5.y A.SXE.-.m pXhX>.y E.kXi.9 y.kX{.y -.aX=X>.9.e.GXK.t 6.",
"iX9 u.kXkX5.3 lX-X3X1 tXY.fX4 5.bXdX3.t SXjX4XO 2X*XsXb 7.vX=XD.7 lX=XL.@ iX.XhX1 <.DXfX,.3 iXkXqX1 D.=XkXy 3.vXjX7.1 fX[.W.@ <X",
"=X:.3X..W C.n vX> wX8 MX: jXv L.~ p.3Xm .X& fX8 MXg M.,.C.(.T 4X1. X: dX5 pX*  X-.d.! R G.m wX% lX7 NXE [.;.D.z.: 7X8 CX% lXv wX",
"U.,.T.Y Y T.J  X: qXm hX: H.2.T.X.B A.N pX: hXx MX: M.s.S.j.g R.t.[.: dXJ jX%  Xm R.X.F F.v qX* pXt iX& j.4.S.} g G.b lX% z.p wX",
"pXMXPXM.[.IXMXjXW JXBXLX} pXCXKXl.k.IXhXjXk SXgXUX! jXZXHX[.x.UXAXjXX.PXMXLXY vXAXDXj.p.UXSXbXU DXiXSXW  XHXAX{...IXHXzXT vXMXSX",
"p.hXhXR R iXiXc.* qXdXm.: c.qXW.> d Y.Y.} d k.W.m.d ~ W.Q.g g Y.rXW * I.E.M.% } Q.m.g k m.m.W * k.OXb.> R Y.v.Y % g.I...* H g.M.",
"(.{.*XoXoX%XY.[.`.[.I.).^.].M.B._.k.N.N.(.(.(.b.n.`.~.N.n.(.!.n.a.^.$.{.z.^.$.(. .n.^.O.n.b.l.`.(.o...!.!.M.b.`.^. Xm.$.$.x.U.n.",
"zX&X_.oX>X,X&XzX$X).=X#X>X:X:X#XoX:X-Xn.}.`.:X&X#X$X`.).#X>X'.$XkX'.$X>X&X%.$X$X&X'.'.!._.)._.'.oX#X,XoXoX>X>X'.'.=X{.`.'.x.{.}.",
"zXj.F 4XG.C.3XZ.8Xi.> l.LXIXW.Q.IXGXn.& K G.,.,.5.V.s.Q {.DXIXiXv.GXLXpXw.d.s.V.:.4.K ! g } lXIXZXv.lXLXpXQ f F.4.m ,.m 0.F & x.",
"! w.F.q.J S.4.1.t 2.z.: c.JXI.L UXz.k E K x 4.A 1.J v K 0.p.IXI.G FXY.H.K K A 1.M 4.J p.p.p.R DXhXP GXpXf 0.d.p v 2.,.J N D ! d ",
"I.F.0.C.G.dXgXgXL.V.V p.d M.DXIX|.& U.P v V.T.W.rXE.s.N K i. XLXSXUXQ K 0.s.T.tXMXE.s.2.A.z.B j.kXLXpXf Q P v A.T.6XBXdX6XT.d.R.",
"mX2.2.HXMXKXIXhXxXmXe.V p.: pXJX: ! F.1.5XMXIXDXFXxXMX7X<.0.F =XIXp.0.0.W.hXKXPXLXUXIX5XA.i.p.! :XGX! F N N 6XBXJXIXIXHXVXMXs.T.",
"S.dXHXSXPXLXg.vXPXNXNX;.D k =XfXg B p 5XBXdXLXk.aXLXZXBXT.J K =XlXp.I.I.hXKXLXFXE sXKXAXgX2.K ! W bXR F N s.MXSXGXU.p.LXHXgXdXt.",
",.3XIXSXa.m.a.m.h.KXmXT.J i.k p.F f <.3XPXaXu m.{ F hXIXtXJ d.F F F.d.MXIXFXa.k o.} P FXHXT.J B Y (.w.N V dXMXSXk } H { p.UXHXA ",
"A tXKXFXY.N.{.M.a.vXFXS.x V z.g P K G.HXGXb.{ *X.Xk.*XFXZXs.J F.d.I.2.gXPXFXa.M.kXm.} aXSX6X4.4.E k K p 2.gXSXaX} N.N.k.{ lXiXT.",
"s.gXIXg.{ kX).=X{ b.nX6X-.e.Q ] 2.c C.HX*Xz -XW.[.=Xj ZXFXf.J 4XfX2.f.MXZXW.k &XU.=X{.k LXrXA :.M.R d.J s.iXFXj b.{.n.&Xk m.SXI.",
"A 6XIXvX{ pX X|.{ FXHXD.,.J d g K v A.ZXKXm.} &X*X| +XKXNXV.4.r.0.d.s.dXPXKX) b.=X{.H vXKXdXm 5.U Y f J A 5XIXY.D Y.m.m.H DXhXd.",
":.L.MXLXH k.k b.} LXgXV.i K k.(.F N P rXPX+X{ E a.a.sXIX5XJ 2.W.fXF.i.A.HXIXW.m.u {.m.aXSXF.V C T :XF p J T.lXsXH ..l a.m.KXqX2.",
",.C.BXMXLXsXN.GXIXfXqX0.B d vXM.d d D T.MXZXLXm.W.LXGXhXA.K K kXvXp.0.i.MXJXLXvXiX*XIXIXdXP p j X.bX! f F g.6XHXGXOXa.FXIXSXC.,.",
"V c V.BXMXKXZXZXuX3XK N f Q hXIXW k D ,.8XBXHXPXPXHXZXdXs.A.iXvXLXW.F.f.6X6XMXKXKXKXMXdXC.a Q d aXDXU.F f K 4.3XiXSXKXhXR.A.4.M ",
"N N J s.T.7X8XmX<X,.v N f hXHXZXbX& B V <.D.s.5X5XL.E.5X7XT.dXLXKXZXI.2.2.,.4.S.L.3XS.V J K & z.KXPXIX! F J 6 ,.V.C.T.T.A.J N K ",
"M.& p v v M C.;.,.v p s pXUXi.J lXlXp B w.5 4.M 1.v A.F.A.dXIX*XE.KXiXd.v p i v M 2.i K B f ! GXI.# lXlXF p K v x V m q a B d & ",
">X(.g p.R p.f F R k ! kXzXLX{.{.LXkXjXW Y } Q D K k.k.E M.DXLX-X{.LXGXjX} R E F p f } Y : (.:XGX*XM.zXbXzXY % T a D F ! R g k (.",
"}.}.(.}.&X_._.#X'.`._.n.&X).:X_.U.{.).O.$X&X{. X:X:X_.'.}.:X}.&X>X}._.:X!.O.:X_.Y.(./.%.@._.(.M.).(.(.(.^.^.%.$.o.N.k.n.l.!.l.}.",
"~.W VXR.B.,XU.z.%XqXH.bXwXg.;Xd.b.cX+XiXU.U.{.(.pXl.O.:X.XpXB.@.[.@.).pXjX/...[.`.(.U.p.{.%X*X{.b.o.M.} .X.Xz.U.U.c.).).4XqX}.j.",
"W P / X 5X1.( o _ 5 ,.s.4.. L 2.2.J HXdXD  X).#XZXs.3.KXAX) h i v.# S.J.PXD.x 6X%.&XpXD i.JXC.<.v J + 7 5.:.6 ,., X J Z.( X i.u ",
"&XvXl v.u.O @XS g.sXT.7 L.Z 2.*XW.s A.PXC.+ 6Xd.T.7 0XPXy.. SXSXnXHX:.5 mXNXb L I.R.M q dXiXp <. XI.7 Z.y.n 3X6Xh ) M 7 m., { =X",
"+.+.CXq f 0.e 2.:X+..X4X= z .X$.OXa.# MXNX<X,.7 <.0.KXrX6 fXl.%.:X+.(.C S.JXa.<.8 8 3.8XKXG j W.&./.).o ; ).+.%.J.q f f e <._.+.",
"'._.wXe Q d.;.J zX@.pXqXu | jX`.dXT.J IXhXZXiXcXqXSXFXhXi  X^.'.zXO.>XN q.DXvXR.aXE.gXdXPXT.x NX%./.%X; z ,X%.%.E.5 F p.e q.>X^.",
"Q.6X, ) D.4 J.r L aXtXt yXL A W.E.# I.P s E.hXIXgX2X:.y._ u iXfXaX6XA.s r.t 5.tXIXPX5XD $ { j L 6XS.4 2X:.x 3XwXh G n 8 v.l L.g.",
"m t ) X 6XA.( = P.t J s.KXP.r.4 H { ) U.i.c m HXL 4 Z.J.X G 1.7 v 4 Z.X h.1.>.+ BXC.. 0.a...o | 3 3.3.BX8Xy.7 -.h ; V.V.( h L.@ ",
"eXdXC.G././.DXi.I.eXlXbXCXSXvXBXuXs.6XfXiXI.a.) q.U.&X>X Xd.6XJ.1XqXa.} N.%X{.e.H p.d.R.U.iXv 3XfXW.kXnX=XkXY.iXP d.}.).R.4.0.wX",
"pXPXr ) #X+.lXn q.IXiXZ.t D.6XDXfX@ W._.%.GXh X j GX] =X7X@ FXHXHXIXr c pX] /. XX # m.#X] *Xi L IXdXV.6 5.A.HXiXy z.'.O.W.t Z.LX",
"q.BX<XM qXCXe.3.7XdXx ,.1X3.6 MXCXD.3.lXbXV.P.VX1XC.bXlXe.h.;X X .B.@XV R.GXz.7.Q.C.V *X*XG.-.3XHXv 5 V.4.+ A.MXy D (.(.A.n T.iX",
"A.6XdX2.K J J i.ZXT.C.R.fXSXT.4.lXA.Z Q a.r + W.O v  .p.b r.;XqXY.+Xr.i D } h.O ) 1.. P ( p 2.iXd.2.I.R.iXg.N R.wXp Z D i 2.fXi.",
"rXsXDXIXMX2XPXGXcXW.qXbX,XnX+X7XnXKXZX*XW.AXtX*XuXZX%XhXNXdXY.HXSXiXrXHXhXb.aXuX*X6XNXiXh.KXVXGX6XF.pXpXpXU.I.NXVXdX8X2XdXVXfXR.",
":.MXCXq.3.-.5.4XcXI.0.|.).;X2.D.wX7X:.v s.>.3 qX0 3.P i.b G #XsX&X;X) m <.D 4.0 A.b 7 4.J 4.D.fX1.D pXM.pXa.K MXlXV.y.y.s.R.lXs.",
"2.dXJ w T.4Xv i tX7X7 C F.q.2 9XVXA 6 .X{.r 1.W.t P -Xm.m f. .K F m.I.x 0.=Xg.x Y.V.4 z.{.p m iXgXi a R.p.$ fX6Xv i I.I.i i fXz.",
"kXSXr H ^.^.Y.2.C.MXG.m 2 ;.S.VXi.# W.^./.OX= o  .#X#.).D.c hXJXJXNXi <. X] /.F X u {.] @.=X# v.UXW.I.2.s.I.UXI.t F.l.X.R.m T.lX",
"qXmXn A.l.`.|.D.U.cXOX+XtX3X X,X8X-.6XO.`.Q.h u a.M.%.M.4Xg.;XF.g.+XJ q.[.O.&XK = Z  X$.O.|.V 7XUXfXMXtXNXHXhXW.y x.$.$.I.7 3XjX",
"8 x ` ; I.I.h , r.6 3.C.AXK.1.1 :.h L 4Xm.+ 7.7X9 m J._ o K.m 7 6 6 ) o K.f.4.0 8X3.4 d.a.j L S.7 u.Q.xX7X1X2.1., l m.z.Z t.1.7 ",
"q.{ - j ,.6 2.X <Xi.q.2 A.t -.d.| X ) q # A.7XnX4Xq.@ Z s D d.F Q Q a a P # J 4X-XSXq.c # u o | 2.-.4 4X2 C z.,.X f.9 x ; o i.e.",
"O.&XT.5.v K <.,.|.' ).i.; 2.wX[ Y...P HX6XdXdXcX XfXdXdXV U.&X+.+./.pXV G.MXhXN.-XU.6XmXgXa.z %X%.qXK u { n.[ {.q.J V J J z.M.`.",
"[ l.C.7 i P w e }.[ N.2.X ( .X' BX2.i MXdXV.b 6 H q.HXs.q F.o.O.T /.|.+ s.CXi.z c x q.6XMXp ;.1XI M.{   m.n.' ).7.  H P 1 e.l.' ",
"].=X/ _ y.3 s.l d.4X1Xy 5XG E }.<Xe s.rXe.7 C.<.r.3 dXaXm p ;Xp s N.a m +X6X7 L <.q.5 v dXA.m D.}.g.G K.-.7. Xd.u E.7 t h.| (.XX",
"~ R o # i.i Z o P x e t S o l f | a gX6X-.d.n./.5X7.1.;XS.p u 3.n j v D.OXf.9 T.@.&XI.x T.rXu j d D o r.9 -.s s X D ,.,.o - ..w.",
"] j.R.P B.#Xa.4.a.z a.IX( h v.X z dXhXrX7 N %.+.W.9 p GXeXs.o :.x - S.9XsXL 9 g.[ o.d.+ L.PXm.j o f., ..VX.X> m.J { &X).E z.X.W ",
"%.O.g l.[ ] pX6 c #XX.wXcXt 8.J.V.0 A.aXV.C }.]. .-.qXY.*.6 ..J 5 B.5 9 Y.R.;.( XXqXN J gXS.@ 3.f.7.4 pXpX..n.0.9 pXI +.x.B n.[ ",
"n c.!.T M.W.V.c R.x.I %.d.e |.&.U.e.i.%X%X4 3.3 ;.w pXz.q G.[.[ +.M.F.m 2. Xp m G m 6 g.iXv 2.n.$.).c e.(.I +.wXV A. Xj.W (.{.G ",
"A g.l.: { r.L @ NXvX@.k.e.8 z.+. Xg.# HXCX4X<.V.L.T.IX2.$ rXQ W W } Y.# J IXT.J.J.J T.HXmX# Q U.] qX9 w @./.iXMXv # I.k.& M.Y.G ",
"@ K X.n.j   K.h P.aXQ <.y.G | wXK., K.7.3. XkXIXE.5XM s.G v.Q.w # m./ _ s.x A.E.KXiXW.,.4.| ; R.{.f.Z.h.D q.NXK.t.f.  H (.j.Q # ",
"x z.l.: H G h X G + ;.e u . | e s = = m m w j d.@ v i G . h FX4X4XZX= X i.5 x 5 Z.a $ J i # = J *.; X h.e ;.# h . ) h z Y x.z.D ",
"w z.X.g X.Y.a.H v.J e. Xb.| i.w s.,.2.;Xb.P A K.m K &XN.Z C.dXz.U.qXA.a %X{.0.c Q.D N k.OXL 2.i.e H z Y.wXH.a f.D h.;Xo.g j.c.F ",
"z.j.& l.j.! {.;   d.^.] M.8 4 z C + A.] @.W.M   G.z.] n.K + p k d p @ s o.T {.w.  c lX.. .f.+ # k c 8 z.T }.Q + F {.E M.j.% c.z.",
"H.pX} k x..Xp.H 2.Q ] ^.z.4.4.s <.s.i.k.n.R j H R k.l.z.0.s.g.k.p.I.i.G M.M.(.E P F } (.k.a.s.J u 4.5.p.%.l.p.D } U.z.{.E ! kXa.",
"f a.{ ; ! ~ d z Q.o ~ w.H X f.0 r = = G.~ : T k.o Y p.K . _ sXW.6XxXh . i.w.> % I.d > Y U.o = 3.1 L - a.c.~ ; m.u j a.a.& k.Y.) "
};
